<?xml version="1.0" encoding="UTF-8"?><svg id="uuid-c625d482-7fbc-42be-930b-594198c1aa33" xmlns="http://www.w3.org/2000/svg" viewBox="0 0 2855.05 2827.99"><g id="uuid-e42781b1-cc2f-44df-b141-274258a77813"><path d="M0,.74c64.89,0,64.89,178.53,129.77,178.53S194.66.74,259.54.74s64.89,178.53,129.77,178.53S454.2.74,519.09.74s64.89,178.53,129.77,178.53S713.74.74,778.63.74s64.89,178.53,129.78,178.53S973.29.74,1038.18.74s64.89,178.53,129.77,178.53S1232.84.74,1297.73.74s64.89,178.53,129.78,178.53S1492.39.74,1557.28.74s64.89,178.53,129.78,178.53S1751.94.74,1816.83.74s64.89,178.53,129.77,178.53S2011.49.74,2076.38.74s64.89,178.53,129.77,178.53S2271.04.74,2335.93.74s64.89,178.53,129.78,178.53S2530.6.74,2595.49.74s64.89,178.53,129.78,178.53S2790.16.74,2855.05.74" style="fill:none; stroke:#fff; stroke-miterlimit:10; stroke-width:1.49px;"/><path d="M0,111.08c64.89,0,64.89,178.53,129.77,178.53s64.88-178.53,129.77-178.53,64.89,178.53,129.77,178.53,64.89-178.53,129.77-178.53,64.89,178.53,129.77,178.53,64.89-178.53,129.77-178.53,64.89,178.53,129.78,178.53,64.89-178.53,129.77-178.53,64.89,178.53,129.77,178.53,64.89-178.53,129.78-178.53,64.89,178.53,129.78,178.53,64.89-178.53,129.78-178.53,64.89,178.53,129.78,178.53,64.89-178.53,129.78-178.53,64.89,178.53,129.77,178.53,64.89-178.53,129.78-178.53,64.89,178.53,129.77,178.53,64.89-178.53,129.78-178.53,64.89,178.53,129.78,178.53,64.89-178.53,129.78-178.53,64.89,178.53,129.78,178.53,64.89-178.53,129.78-178.53" style="fill:none; stroke:#fff; stroke-miterlimit:10; stroke-width:1.49px;"/><path d="M0,221.41c64.89,0,64.89,178.53,129.77,178.53s64.88-178.53,129.77-178.53,64.89,178.53,129.77,178.53,64.89-178.53,129.77-178.53,64.89,178.53,129.77,178.53,64.89-178.53,129.77-178.53,64.89,178.53,129.78,178.53,64.89-178.53,129.77-178.53,64.89,178.53,129.77,178.53,64.89-178.53,129.78-178.53,64.89,178.53,129.78,178.53,64.89-178.53,129.78-178.53,64.89,178.53,129.78,178.53,64.89-178.53,129.78-178.53,64.89,178.53,129.77,178.53,64.89-178.53,129.78-178.53,64.89,178.53,129.77,178.53,64.89-178.53,129.78-178.53,64.89,178.53,129.78,178.53,64.89-178.53,129.78-178.53,64.89,178.53,129.78,178.53,64.89-178.53,129.78-178.53" style="fill:none; stroke:#fff; stroke-miterlimit:10; stroke-width:1.49px;"/><path d="M0,331.74c64.89,0,64.89,178.53,129.77,178.53s64.88-178.53,129.77-178.53,64.89,178.53,129.77,178.53,64.89-178.53,129.77-178.53,64.89,178.53,129.77,178.53,64.89-178.53,129.77-178.53,64.89,178.53,129.78,178.53,64.89-178.53,129.77-178.53,64.89,178.53,129.77,178.53,64.89-178.53,129.78-178.53,64.89,178.53,129.78,178.53,64.89-178.53,129.78-178.53,64.89,178.53,129.78,178.53,64.89-178.53,129.78-178.53,64.89,178.53,129.77,178.53,64.89-178.53,129.78-178.53,64.89,178.53,129.77,178.53,64.89-178.53,129.78-178.53,64.89,178.53,129.78,178.53,64.89-178.53,129.78-178.53,64.89,178.53,129.78,178.53,64.89-178.53,129.78-178.53" style="fill:none; stroke:#fff; stroke-miterlimit:10; stroke-width:1.49px;"/><path d="M0,442.07c64.89,0,64.89,178.53,129.77,178.53s64.88-178.53,129.77-178.53,64.89,178.53,129.77,178.53,64.89-178.53,129.77-178.53,64.89,178.53,129.77,178.53,64.89-178.53,129.77-178.53,64.89,178.53,129.78,178.53,64.89-178.53,129.77-178.53,64.89,178.53,129.77,178.53,64.89-178.53,129.78-178.53,64.89,178.53,129.78,178.53,64.89-178.53,129.78-178.53,64.89,178.53,129.78,178.53,64.89-178.53,129.78-178.53,64.89,178.53,129.77,178.53,64.89-178.53,129.78-178.53,64.89,178.53,129.77,178.53,64.89-178.53,129.78-178.53,64.89,178.53,129.78,178.53,64.89-178.53,129.78-178.53,64.89,178.53,129.78,178.53,64.89-178.53,129.78-178.53" style="fill:none; stroke:#fff; stroke-miterlimit:10; stroke-width:1.49px;"/><path d="M0,552.4c64.89,0,64.89,178.53,129.77,178.53s64.88-178.53,129.77-178.53,64.89,178.53,129.77,178.53,64.89-178.53,129.77-178.53,64.89,178.53,129.77,178.53,64.89-178.53,129.77-178.53,64.89,178.53,129.78,178.53,64.89-178.53,129.77-178.53,64.89,178.53,129.77,178.53,64.89-178.53,129.78-178.53,64.89,178.53,129.78,178.53,64.89-178.53,129.78-178.53,64.89,178.53,129.78,178.53,64.89-178.53,129.78-178.53,64.89,178.53,129.77,178.53,64.89-178.53,129.78-178.53,64.89,178.53,129.77,178.53,64.89-178.53,129.78-178.53,64.89,178.53,129.78,178.53,64.89-178.53,129.78-178.53,64.89,178.53,129.78,178.53,64.89-178.53,129.78-178.53" style="fill:none; stroke:#fff; stroke-miterlimit:10; stroke-width:1.49px;"/><path d="M0,662.74c64.89,0,64.89,178.53,129.77,178.53s64.88-178.53,129.77-178.53,64.89,178.53,129.77,178.53,64.89-178.53,129.77-178.53,64.89,178.53,129.77,178.53,64.89-178.53,129.77-178.53,64.89,178.53,129.78,178.53,64.89-178.53,129.77-178.53,64.89,178.53,129.77,178.53,64.89-178.53,129.78-178.53,64.89,178.53,129.78,178.53,64.89-178.53,129.78-178.53,64.89,178.53,129.78,178.53,64.89-178.53,129.78-178.53,64.89,178.53,129.77,178.53,64.89-178.53,129.78-178.53,64.89,178.53,129.77,178.53,64.89-178.53,129.78-178.53,64.89,178.53,129.78,178.53,64.89-178.53,129.78-178.53,64.89,178.53,129.78,178.53,64.89-178.53,129.78-178.53" style="fill:none; stroke:#fff; stroke-miterlimit:10; stroke-width:1.49px;"/><path d="M0,773.07c64.89,0,64.89,178.53,129.77,178.53s64.88-178.53,129.77-178.53,64.89,178.53,129.77,178.53,64.89-178.53,129.77-178.53,64.89,178.53,129.77,178.53,64.89-178.53,129.77-178.53,64.89,178.53,129.78,178.53,64.89-178.53,129.77-178.53,64.89,178.53,129.77,178.53,64.89-178.53,129.78-178.53,64.89,178.53,129.78,178.53,64.89-178.53,129.78-178.53,64.89,178.53,129.78,178.53,64.89-178.53,129.78-178.53,64.89,178.53,129.77,178.53,64.89-178.53,129.78-178.53,64.89,178.53,129.77,178.53,64.89-178.53,129.78-178.53,64.89,178.53,129.78,178.53,64.89-178.53,129.78-178.53,64.89,178.53,129.78,178.53,64.89-178.53,129.78-178.53" style="fill:none; stroke:#fff; stroke-miterlimit:10; stroke-width:1.49px;"/><path d="M0,883.4c64.89,0,64.89,178.53,129.77,178.53s64.88-178.53,129.77-178.53,64.89,178.53,129.77,178.53,64.89-178.53,129.77-178.53,64.89,178.53,129.77,178.53,64.89-178.53,129.77-178.53,64.89,178.53,129.78,178.53,64.89-178.53,129.77-178.53,64.89,178.53,129.77,178.53,64.89-178.53,129.78-178.53,64.89,178.53,129.78,178.53,64.89-178.53,129.78-178.53,64.89,178.53,129.78,178.53,64.89-178.53,129.78-178.53,64.89,178.53,129.77,178.53,64.89-178.53,129.78-178.53,64.89,178.53,129.77,178.53,64.89-178.53,129.78-178.53,64.89,178.53,129.78,178.53,64.89-178.53,129.78-178.53,64.89,178.53,129.78,178.53,64.89-178.53,129.78-178.53" style="fill:none; stroke:#fff; stroke-miterlimit:10; stroke-width:1.49px;"/><path d="M0,993.73c64.89,0,64.89,178.53,129.77,178.53s64.88-178.53,129.77-178.53,64.89,178.53,129.77,178.53,64.89-178.53,129.77-178.53,64.89,178.53,129.77,178.53,64.89-178.53,129.77-178.53,64.89,178.53,129.78,178.53,64.89-178.53,129.77-178.53,64.89,178.53,129.77,178.53,64.89-178.53,129.78-178.53,64.89,178.53,129.78,178.53,64.89-178.53,129.78-178.53,64.89,178.53,129.78,178.53,64.89-178.53,129.78-178.53,64.89,178.53,129.77,178.53,64.89-178.53,129.78-178.53,64.89,178.53,129.77,178.53,64.89-178.53,129.78-178.53,64.89,178.53,129.78,178.53,64.89-178.53,129.78-178.53,64.89,178.53,129.78,178.53,64.89-178.53,129.78-178.53" style="fill:none; stroke:#fff; stroke-miterlimit:10; stroke-width:1.49px;"/><path d="M0,1104.06c64.89,0,64.89,178.53,129.77,178.53s64.88-178.53,129.77-178.53,64.89,178.53,129.77,178.53,64.89-178.53,129.77-178.53,64.89,178.53,129.77,178.53,64.89-178.53,129.77-178.53,64.89,178.53,129.78,178.53,64.89-178.53,129.77-178.53,64.89,178.53,129.77,178.53,64.89-178.53,129.78-178.53,64.89,178.53,129.78,178.53,64.89-178.53,129.78-178.53,64.89,178.53,129.78,178.53,64.89-178.53,129.78-178.53,64.89,178.53,129.77,178.53,64.89-178.53,129.78-178.53,64.89,178.53,129.77,178.53,64.89-178.53,129.78-178.53,64.89,178.53,129.78,178.53,64.89-178.53,129.78-178.53,64.89,178.53,129.78,178.53,64.89-178.53,129.78-178.53" style="fill:none; stroke:#fff; stroke-miterlimit:10; stroke-width:1.49px;"/><path d="M0,1214.4c64.89,0,64.89,178.53,129.77,178.53s64.88-178.53,129.77-178.53,64.89,178.53,129.77,178.53,64.89-178.53,129.77-178.53,64.89,178.53,129.77,178.53,64.89-178.53,129.77-178.53,64.89,178.53,129.78,178.53,64.89-178.53,129.77-178.53,64.89,178.53,129.77,178.53,64.89-178.53,129.78-178.53,64.89,178.53,129.78,178.53,64.89-178.53,129.78-178.53,64.89,178.53,129.78,178.53,64.89-178.53,129.78-178.53,64.89,178.53,129.77,178.53,64.89-178.53,129.78-178.53,64.89,178.53,129.77,178.53,64.89-178.53,129.78-178.53,64.89,178.53,129.78,178.53,64.89-178.53,129.78-178.53,64.89,178.53,129.78,178.53,64.89-178.53,129.78-178.53" style="fill:none; stroke:#fff; stroke-miterlimit:10; stroke-width:1.49px;"/><path d="M0,1324.73c64.89,0,64.89,178.53,129.77,178.53s64.88-178.53,129.77-178.53,64.89,178.53,129.77,178.53,64.89-178.53,129.77-178.53,64.89,178.53,129.77,178.53,64.89-178.53,129.77-178.53,64.89,178.53,129.78,178.53,64.89-178.53,129.77-178.53,64.89,178.53,129.77,178.53,64.89-178.53,129.78-178.53,64.89,178.53,129.78,178.53,64.89-178.53,129.78-178.53,64.89,178.53,129.78,178.53,64.89-178.53,129.78-178.53,64.89,178.53,129.77,178.53,64.89-178.53,129.78-178.53,64.89,178.53,129.77,178.53,64.89-178.53,129.78-178.53,64.89,178.53,129.78,178.53,64.89-178.53,129.78-178.53,64.89,178.53,129.78,178.53,64.89-178.53,129.78-178.53" style="fill:none; stroke:#fff; stroke-miterlimit:10; stroke-width:1.49px;"/><path d="M0,1435.06c64.89,0,64.89,178.53,129.77,178.53s64.88-178.53,129.77-178.53,64.89,178.53,129.77,178.53,64.89-178.53,129.77-178.53,64.89,178.53,129.77,178.53,64.89-178.53,129.77-178.53,64.89,178.53,129.78,178.53,64.89-178.53,129.77-178.53,64.89,178.53,129.77,178.53,64.89-178.53,129.78-178.53,64.89,178.53,129.78,178.53,64.89-178.53,129.78-178.53,64.89,178.53,129.78,178.53,64.89-178.53,129.78-178.53,64.89,178.53,129.77,178.53,64.89-178.53,129.78-178.53,64.89,178.53,129.77,178.53,64.89-178.53,129.78-178.53,64.89,178.53,129.78,178.53,64.89-178.53,129.78-178.53,64.89,178.53,129.78,178.53,64.89-178.53,129.78-178.53" style="fill:none; stroke:#fff; stroke-miterlimit:10; stroke-width:1.49px;"/><path d="M0,1545.39c64.89,0,64.89,178.53,129.77,178.53s64.88-178.53,129.77-178.53,64.89,178.53,129.77,178.53,64.89-178.53,129.77-178.53,64.89,178.53,129.77,178.53,64.89-178.53,129.77-178.53,64.89,178.53,129.78,178.53,64.89-178.53,129.77-178.53,64.89,178.53,129.77,178.53,64.89-178.53,129.78-178.53,64.89,178.53,129.78,178.53,64.89-178.53,129.78-178.53,64.89,178.53,129.78,178.53,64.89-178.53,129.78-178.53,64.89,178.53,129.77,178.53,64.89-178.53,129.78-178.53,64.89,178.53,129.77,178.53,64.89-178.53,129.78-178.53,64.89,178.53,129.78,178.53,64.89-178.53,129.78-178.53,64.89,178.53,129.78,178.53,64.89-178.53,129.78-178.53" style="fill:none; stroke:#fff; stroke-miterlimit:10; stroke-width:1.49px;"/><path d="M0,1655.73c64.89,0,64.89,178.53,129.77,178.53s64.88-178.53,129.77-178.53,64.89,178.53,129.77,178.53,64.89-178.53,129.77-178.53,64.89,178.53,129.77,178.53,64.89-178.53,129.77-178.53,64.89,178.53,129.78,178.53,64.89-178.53,129.77-178.53,64.89,178.53,129.77,178.53,64.89-178.53,129.78-178.53,64.89,178.53,129.78,178.53,64.89-178.53,129.78-178.53,64.89,178.53,129.78,178.53,64.89-178.53,129.78-178.53,64.89,178.53,129.77,178.53,64.89-178.53,129.78-178.53,64.89,178.53,129.77,178.53,64.89-178.53,129.78-178.53,64.89,178.53,129.78,178.53,64.89-178.53,129.78-178.53,64.89,178.53,129.78,178.53,64.89-178.53,129.78-178.53" style="fill:none; stroke:#fff; stroke-miterlimit:10; stroke-width:1.49px;"/><path d="M0,1766.06c64.89,0,64.89,178.53,129.77,178.53s64.88-178.53,129.77-178.53,64.89,178.53,129.77,178.53,64.89-178.53,129.77-178.53,64.89,178.53,129.77,178.53,64.89-178.53,129.77-178.53,64.89,178.53,129.78,178.53,64.89-178.53,129.77-178.53,64.89,178.53,129.77,178.53,64.89-178.53,129.78-178.53,64.89,178.53,129.78,178.53,64.89-178.53,129.78-178.53,64.89,178.53,129.78,178.53,64.89-178.53,129.78-178.53,64.89,178.53,129.77,178.53,64.89-178.53,129.78-178.53,64.89,178.53,129.77,178.53,64.89-178.53,129.78-178.53,64.89,178.53,129.78,178.53,64.89-178.53,129.78-178.53,64.89,178.53,129.78,178.53,64.89-178.53,129.78-178.53" style="fill:none; stroke:#fff; stroke-miterlimit:10; stroke-width:1.49px;"/><path d="M0,1876.39c64.89,0,64.89,178.53,129.77,178.53s64.88-178.53,129.77-178.53,64.89,178.53,129.77,178.53,64.89-178.53,129.77-178.53,64.89,178.53,129.77,178.53,64.89-178.53,129.77-178.53,64.89,178.53,129.78,178.53,64.89-178.53,129.77-178.53,64.89,178.53,129.77,178.53,64.89-178.53,129.78-178.53,64.89,178.53,129.78,178.53,64.89-178.53,129.78-178.53,64.89,178.53,129.78,178.53,64.89-178.53,129.78-178.53,64.89,178.53,129.77,178.53,64.89-178.53,129.78-178.53,64.89,178.53,129.77,178.53,64.89-178.53,129.78-178.53,64.89,178.53,129.78,178.53,64.89-178.53,129.78-178.53,64.89,178.53,129.78,178.53,64.89-178.53,129.78-178.53" style="fill:none; stroke:#fff; stroke-miterlimit:10; stroke-width:1.49px;"/><path d="M0,1986.72c64.89,0,64.89,178.53,129.77,178.53s64.88-178.53,129.77-178.53,64.89,178.53,129.77,178.53,64.89-178.53,129.77-178.53,64.89,178.53,129.77,178.53,64.89-178.53,129.77-178.53,64.89,178.53,129.78,178.53,64.89-178.53,129.77-178.53,64.89,178.53,129.77,178.53,64.89-178.53,129.78-178.53,64.89,178.53,129.78,178.53,64.89-178.53,129.78-178.53,64.89,178.53,129.78,178.53,64.89-178.53,129.78-178.53,64.89,178.53,129.77,178.53,64.89-178.53,129.78-178.53,64.89,178.53,129.77,178.53,64.89-178.53,129.78-178.53,64.89,178.53,129.78,178.53,64.89-178.53,129.78-178.53,64.89,178.53,129.78,178.53,64.89-178.53,129.78-178.53" style="fill:none; stroke:#fff; stroke-miterlimit:10; stroke-width:1.49px;"/><path d="M0,2097.05c64.89,0,64.89,178.53,129.77,178.53s64.88-178.53,129.77-178.53,64.89,178.53,129.77,178.53,64.89-178.53,129.77-178.53,64.89,178.53,129.77,178.53,64.89-178.53,129.77-178.53,64.89,178.53,129.78,178.53,64.89-178.53,129.77-178.53,64.89,178.53,129.77,178.53,64.89-178.53,129.78-178.53,64.89,178.53,129.78,178.53,64.89-178.53,129.78-178.53,64.89,178.53,129.78,178.53,64.89-178.53,129.78-178.53,64.89,178.53,129.77,178.53,64.89-178.53,129.78-178.53,64.89,178.53,129.77,178.53,64.89-178.53,129.78-178.53,64.89,178.53,129.78,178.53,64.89-178.53,129.78-178.53,64.89,178.53,129.78,178.53,64.89-178.53,129.78-178.53" style="fill:none; stroke:#fff; stroke-miterlimit:10; stroke-width:1.49px;"/><path d="M0,2207.39c64.89,0,64.89,178.53,129.77,178.53s64.88-178.53,129.77-178.53,64.89,178.53,129.77,178.53,64.89-178.53,129.77-178.53,64.89,178.53,129.77,178.53,64.89-178.53,129.77-178.53,64.89,178.53,129.78,178.53,64.89-178.53,129.77-178.53,64.89,178.53,129.77,178.53,64.89-178.53,129.78-178.53,64.89,178.53,129.78,178.53,64.89-178.53,129.78-178.53,64.89,178.53,129.78,178.53,64.89-178.53,129.78-178.53,64.89,178.53,129.77,178.53,64.89-178.53,129.78-178.53,64.89,178.53,129.77,178.53,64.89-178.53,129.78-178.53,64.89,178.53,129.78,178.53,64.89-178.53,129.78-178.53,64.89,178.53,129.78,178.53,64.89-178.53,129.78-178.53" style="fill:none; stroke:#fff; stroke-miterlimit:10; stroke-width:1.49px;"/><path d="M0,2317.72c64.89,0,64.89,178.53,129.77,178.53s64.88-178.53,129.77-178.53,64.89,178.53,129.77,178.53,64.89-178.53,129.77-178.53,64.89,178.53,129.77,178.53,64.89-178.53,129.77-178.53,64.89,178.53,129.78,178.53,64.89-178.53,129.77-178.53,64.89,178.53,129.77,178.53,64.89-178.53,129.78-178.53,64.89,178.53,129.78,178.53,64.89-178.53,129.78-178.53,64.89,178.53,129.78,178.53,64.89-178.53,129.78-178.53,64.89,178.53,129.77,178.53,64.89-178.53,129.78-178.53,64.89,178.53,129.77,178.53,64.89-178.53,129.78-178.53,64.89,178.53,129.78,178.53,64.89-178.53,129.78-178.53,64.89,178.53,129.78,178.53,64.89-178.53,129.78-178.53" style="fill:none; stroke:#fff; stroke-miterlimit:10; stroke-width:1.49px;"/><path d="M0,2428.05c64.89,0,64.89,178.53,129.77,178.53s64.88-178.53,129.77-178.53,64.89,178.53,129.77,178.53,64.89-178.53,129.77-178.53,64.89,178.53,129.77,178.53,64.89-178.53,129.77-178.53,64.89,178.53,129.78,178.53,64.89-178.53,129.77-178.53,64.89,178.53,129.77,178.53,64.89-178.53,129.78-178.53,64.89,178.53,129.78,178.53,64.89-178.53,129.78-178.53,64.89,178.53,129.78,178.53,64.89-178.53,129.78-178.53,64.89,178.53,129.77,178.53,64.89-178.53,129.78-178.53,64.89,178.53,129.77,178.53,64.89-178.53,129.78-178.53,64.89,178.53,129.78,178.53,64.89-178.53,129.78-178.53,64.89,178.53,129.78,178.53,64.89-178.53,129.78-178.53" style="fill:none; stroke:#fff; stroke-miterlimit:10; stroke-width:1.49px;"/><path d="M0,2538.38c64.89,0,64.89,178.53,129.77,178.53s64.88-178.53,129.77-178.53,64.89,178.53,129.77,178.53,64.89-178.53,129.77-178.53,64.89,178.53,129.77,178.53,64.89-178.53,129.77-178.53,64.89,178.53,129.78,178.53,64.89-178.53,129.77-178.53,64.89,178.53,129.77,178.53,64.89-178.53,129.78-178.53,64.89,178.53,129.78,178.53,64.89-178.53,129.78-178.53,64.89,178.53,129.78,178.53,64.89-178.53,129.78-178.53,64.89,178.53,129.77,178.53,64.89-178.53,129.78-178.53,64.89,178.53,129.77,178.53,64.89-178.53,129.78-178.53,64.89,178.53,129.78,178.53,64.89-178.53,129.78-178.53,64.89,178.53,129.78,178.53,64.89-178.53,129.78-178.53" style="fill:none; stroke:#fff; stroke-miterlimit:10; stroke-width:1.49px;"/><path d="M0,2648.71c64.89,0,64.89,178.53,129.77,178.53s64.88-178.53,129.77-178.53,64.89,178.53,129.77,178.53,64.89-178.53,129.77-178.53,64.89,178.53,129.77,178.53,64.89-178.53,129.77-178.53,64.89,178.53,129.78,178.53,64.89-178.53,129.77-178.53,64.89,178.53,129.77,178.53,64.89-178.53,129.78-178.53,64.89,178.53,129.78,178.53,64.89-178.53,129.78-178.53,64.89,178.53,129.78,178.53,64.89-178.53,129.78-178.53,64.89,178.53,129.77,178.53,64.89-178.53,129.78-178.53,64.89,178.53,129.77,178.53,64.89-178.53,129.78-178.53,64.89,178.53,129.78,178.53,64.89-178.53,129.78-178.53,64.89,178.53,129.78,178.53,64.89-178.53,129.78-178.53" style="fill:none; stroke:#fff; stroke-miterlimit:10; stroke-width:1.49px;"/></g></svg>