<?xml version="1.0" encoding="UTF-8"?><svg id="uuid-8d8f7746-d996-4728-b4dc-812a8d2f6b12" xmlns="http://www.w3.org/2000/svg" viewBox="0 0 4446.46 4133.93"><g id="uuid-ee6699a6-0d63-499d-b7ff-8158acb04465"><path d="M4421.14,939.75s-44.36-2.78-123.57-7.75c-46.75-79.32-96.96-148.25-150.26-207.29-53.3-59.04-109.68-108.19-168.77-147.93-63.5-63.43-131.69-120.03-203.19-169.16-71.5-49.13-146.32-90.79-223.09-124.34C3021.01-17.1,2043.14-238.75,1982.35,737.35c-8.61,164.39-39.22,314.05-101.03,423.74-21.72,36.19-46.91,67.94-91.04,88.98-188.68-14.86-558.1-260.16-539.43-10.47,15.42,206.26,407.74,198.77,456.21,511.72,13.99,75.37-53.52,178.66-121.64,161.92-223.43-81.55-428.62-142.63-662.38-26.9-152.26,87.8-377.32-15.46-453.36-249.94-88.41-288.14-73.62-649.48,40.72-909.11,9.94,21.09,20.68,53.04,13.99,75.37-86.16,301.18-124.26,686.11,86.41,932.35,82.12,92.11,195.05,149.17,291.56,98.29,217.95-103.62,419.28-206,659.34-125.7,34.06,8.37,72.38-38.16,104.82-51.5-148.42-196.32-351.17-224.83-536.29-352.91-62.25-49.93-42.99-127.78,4.45-164.08,182.27-133.7,404.89-63.01,588.6,38.89,41.91,1.99,77.96-8.55,105.24-33.27,27.28-24.72,45.79-63.63,49.44-126.68,10.73-415.63,140.27-807.38,448.04-939.55,372.65-158.85,773.89-46.93,1136.01,109.36,73.91,24.58,146.3,57.25,216.02,97.94,69.73,40.69,136.8,89.41,200.09,146.08,57.85,46.88,108.03,85.45,155.47,132.42,47.44,46.97,92.15,102.35,133.76,166.59,65.05,83.04,114.11,95.06,153.71,97.55,79.21,4.97,123.57,7.75,123.57,7.75l-23.48,103.55Z" style="fill:none; stroke:#fff; stroke-miterlimit:10; stroke-width:2.98px;"/><path d="M4076.78,2773.54c-86.88-167.2-157.75-336.24-244.96-497.8-43.61-80.78-91.3-159.7-147.13-235.58-134.78-213.05-186.78-466.78-258.17-715.23-9.29-32.33-54.5-33.72-66.02-2.11-92.64,254.08-97.52,552.87-143.95,828.75-18.45,88.71-62.64,168.43-119.21,194.49-272.7,42.22-501.59,223.07-729.68,414.78-46.63,47.15-105.63,40.64-152.26,87.8-179.02,177.13-351.35,331.92-578.14,360.68-54.46,6.23-102.87,20.07-151.5,30.64-47.3,12.85-96.19,19.87-147.17,19.34-56.35,2.58-97.98,7.61-132.77,13.27-289.99,47.14-552.09-28.27-760.11-281.98-35.54-47.85-71.45-103.74-97.69-161.88-54.89-87.46-127.07-158.48-205.13-196.32,15-22.95,28.38-67.62,45.82-58.01,161.19,31.62,219.79,256.48,316.98,398.61,26.44,32.02,55.36,61.32,85.25,87.49,95.13,79.95,202.48,132.09,319.3,156.61,38.94,8.17,78.94,13.28,119.89,15.32,40.95,2.04,82.85,1.02,125.6-3.05,56.38,5.57,111.9,6.24,166.44,2.14,54.54-4.1,108.12-12.98,160.62-26.5,292.26,14.96,537.78-167.14,743.56-433.59,38.32-46.53,96.51-50.88,136.45-75.7,213.08-168.76,427.79-315.8,675.69-373.08,55.21-25.41,97.28-77.68,112.38-155.23,48.65-243.8,29.99-493.48,61.2-746.89,18.66-131.68,68.71-249.85,70.38-382.34.46-36.58,37.64-60.98,71.65-47.49,48.03,19.05,91.58,49.57,101.26,105.99,56.78,312.33,105.25,625.29,255.64,884.35,65.31,116.6,142.14,224.87,227.56,324.01,46.43,62.03,61.24,148.25,83.54,223,19.87,42.18,40.55,95.22,79.98,113.47l-25.29,132.06Z" style="fill:none; stroke:#fff; stroke-miterlimit:10; stroke-width:2.98px;"/><path d="M4236.39,1547.25c-99.39-53.97-141.57-170.89-180.97-283.06-18.73-47.24-41.2-91.77-76.46-154.58-38.88-100.38-87.83-190.99-144.41-270.67-56.58-79.68-120.79-148.44-190.22-205.13-363.79-310.07-871.09-610.57-1274.75-307.48-166.45,121.61-273.29,369.75-245.51,629.67,11.05,91.96,2.95,207.19,10.21,316.56,2,48.6,6.7,94.45,18.79,135.76,12.08,41.3,31.55,78.06,63.08,108.45,126.12,121.57,332.31,84.33,405.1,275.38,70.36,158.49-68.72,310.8-162.79,394.24-109.89,95.54-232.95,126.58-365.96,136.52-65.69,15.83-130.57,42.51-167.26,110.75-68.32,92.44-148.66,163.94-235.6,204.62-43.47,20.34-88.59,32.97-133.8,35.98-56.57-12.26-157.95-26.52-162-80.8-73.01-529.45-491.48-312.59-757.29-401.89-171.12-52.71-277.98-252.13-319.15-467.38,171.14,500.28,595.29,359.41,934.29,421.41,135.44,22.63,119.23,253.08,217.16,333.09,80.49,70.4,168.69,20.14,240.93-60.85,40.44-25.63,83.01-49.68,126.59-71.34,174.33-86.62,357.43-122.13,553.15-187.71,64.88-26.68,158.95-110.13,116.77-227.06-30.62-74.13-99.55-101.72-160.18-129.94-112.12-46.2-271.69-56.11-321.11-215.16-7.96-49.53.85-99.31,9.94-150.25,9.09-50.93,18.45-103.02,7.58-155.85-4.23-61.86-6.75-124.39-6.87-186.66-.58-311.35,58.94-616,264.97-795.15,422.92-380.94,975.02-40.13,1382.47,276.69,61.51,49.98,119.29,108.03,171.71,173.61,52.42,65.58,99.48,138.68,139.57,218.77,38.51,46.14,74.82,95.92,108.8,152.32,33.98,56.4,65.63,119.42,94.71,189.26,73.65,91.54,118.01,94.33,118.01,94.33l-79.53,143.55Z" style="fill:none; stroke:#fff; stroke-miterlimit:10; stroke-width:2.98px;"/><path d="M4119.59,2480.11c-60.32-105.42-128.16-207.35-196.13-309.65-67.97-102.3-136.06-204.95-196.86-311.81-121-205.57-215.29-460.52-218.13-722.3-3.25-43.42-14.8-86.23-45.54-121.83-35.75-50.32-74.42-97.48-115.52-141.05-95.68-101.41-204.59-183.32-320.77-240.14-28.65-14.01-57.33,18.37-40.16,45.25,19.63,30.73,37.71,62.39,53.67,94.62,159.46,393.77,182.98,919.12,48.92,1303.23-19.15,54.87-41.52,106.86-67.16,155.17-356.22,266.79-746.3,416.02-1078.6,779.27-108.26,117.26-263.77,161.63-413.57,144.48-53.58,19.06-108.65,31.37-165.55,34.88-56.9,3.51-115.62-1.79-176.51-17.95-62.1-11.71-109.89-16.53-157.97-24.69-47.13-7.54-94.55-18.4-142.2-32.82-35.53-11.05-70.08-24.58-103.61-40.66-33.53-16.09-65.7-34.78-94.85-56.05-131.13-89.22-202.3-258.57-297.6-415.19-46.43-62.03-122.87-78.15-153.49-152.27-9.94-21.09,30.01-45.91,43.38-90.57,48.56,34.58,97.63,79.38,142.89,127.45,45.26,48.07,81.87,94.69,108.88,144.18,36.46,61.62,67.08,135.74,101.85,204.48,34.77,68.73,73.71,132.08,133.01,178.27,29.35,21.73,63.15,39.6,99.9,53.7,45.36,9.42,90.73,16.17,136.01,20.36,46.59,5.19,104.65,19.31,167.46,30.9,58.65,14.44,115.31,18.92,170.26,15.2,54.95-3.72,108.17-15.64,159.94-33.98,198.06,4.92,384.39-74.51,530.16-249.15,60.82-80.96,112.52-172.16,193.21-210.94,113.13-52.12,217.95-103.62,320.34-187.69,143.14-98.03,308.58-121.31,450.93-231.31,27.23-28.25,46.09-71.48,57.55-123.28,79.67-388.03,117.15-892.99-103.93-1248.05-50.26-83.6-112.1-160.39-190.11-225.52-17.44-9.61-53.93-50.55-38.12-62.65,253.77-146.33,546.13,68.34,749.02,330.04,40.58,52.34,77.58,106.56,109.97,160.15,2.56,128.66,19.45,250.65,47.94,366.37,28.45,115.55,68.6,225.19,117.59,328.8,97.98,207.23,231.53,391.07,378.88,554.83l-5.38,177.89Z" style="fill:none; stroke:#fff; stroke-miterlimit:10; stroke-width:2.98px;"/><path d="M4384.11,1103.03s-44.36-2.78-123.57-7.75c-41.41-91.17-87.29-169.79-137.07-236.61-49.78-66.82-103.48-121.85-161.08-169-62.73-80.17-130.55-148.67-202.03-205.83-71.48-57.16-146.62-102.96-223.97-137.75-386.82-209.05-842.82-382.38-1234.72-145.67-231.33,148.29-347.49,495.38-296.59,840.9,10.9,61.95.84,109.1-21.07,147.92-23.09,38.28-58.03,68.24-110.19,89.29-37.26,14.62-76.27,28.92-119.34,30.02-93.05-55.96-215.11-123.25-318.3-50.04,91.04,211.52,295.42,261.75,387.05,468.69,33.52,47.45,65.5,68.42,94.65,88.8,58.3,40.76,106.4,97.2,125.36,183.12-59.25,18.07-114.01,47.41-166.58,82.2-98.82,57.72-218.64,132.17-306.63,73.25-123.68-89-232.16-310.14-395.17-254.29-196.26,58.34-379.34,181.18-575.2,21.16-214.11-180.49-307.39-533.76-237.86-833.7-21.28,274.5,11.38,599.55,216.36,769.81,230.74,179.25,454.57,42.44,679.01,25.66,124.69-9.32,212.49,158.78,316.3,205.6,78.06,37.83,179.63-57.09,274.7-73.86,41.65-34.38,84.82-64.9,131.2-87.47-27.37-30.7-54.54-58.69-83.68-83.8-29.14-25.11-60.48-59.77-97.04-127.55-110.24-214.48-282.99-288.9-451.48-418.22-17.44-9.61-53.93-50.55-38.12-62.65,111.71-183.01,315.07-34.47,458.43,26.19,49.88-5.98,90.91-18.22,118.86-42.05,25.73-24.44,44.13-57.88,48.79-107.35,20.47-285.36,7.68-568.23,184.27-777.92,408.12-467.16,977.04-236.78,1426.88-1.94,76.3,34.72,150.34,79.41,220.85,134.28,70.5,54.87,137.46,119.91,199.59,195.31,57.68,44.25,112.12,96.93,163.15,160.12,51.03,63.19,98.65,136.88,142.41,221.61,79.21,4.97,123.57,7.75,123.57,7.75l-11.74,51.77Z" style="fill:none; stroke:#fff; stroke-miterlimit:10; stroke-width:2.98px;"/><path d="M4005.48,3001.92c-31.63-.89-89.01,14.31-90.63-7.4-13.29-233.71-82.08-455.08-178.75-658-48.33-101.46-102.7-202.33-160.75-303.85-40.7-70.83-85.38-138.27-130.94-200.87-15.67-21.53-49.56-9.64-48.39,16.95,10.2,231.83-59.75,468.56-191.41,615.43-37.29,41.6-79.66,73.66-127.41,84.81-422.26-82.54-689.06,374.06-1031.09,607.03-150.64,109.51-324.39,133.41-496.82,158.68-40.45,10.88-76.54,21.3-110.11,31.07-33.57,9.77-64.6,18.88-94.92,27.14-365.21,102.03-702.91,56.35-949.91-261.76-35.29-45.44-68.72-96.45-100.12-153.38-63.65-77.73-116.93-118.7-154.32-140.66-37.39-21.96-58.15-24.28-58.15-24.28l15.53-47.6c81.08,26.4,153.27,97.42,211.01,173.83,30.76,52.47,64.46,100.46,99.89,143.62,255.31,306.18,595.79,375.24,968.72,278.9,42.62-11.01,99.01-21.07,156.79-36.53,162.27-24.62,337.65-26.81,488.29-136.32,356.22-266.79,648.77-714.39,1092.59-703.9,43.12-19.6,78.84-48.04,108.52-83.31,130.64-155.26,144.16-442.77,155.78-690.12,1.2-25.54,35.37-33.16,47.29-10.54,41.69,79.18,87.75,152.26,127.47,237.23,58.51,111.38,116.8,224.78,171.72,330.52,109.85,211.48,199.62,434.02,210.38,689.75.81,10.86,56.57-26.06,93.87-1.16l-24.11,64.71Z" style="fill:none; stroke:#fff; stroke-miterlimit:10; stroke-width:2.98px;"/><path d="M4156.85,1712.17c-171.3-120.24-282.21-373.95-306.22-613.98-19.45-67.53-57.6-138.01-100.36-202.36-42.75-64.34-90.86-125.33-144.64-178.96-358.34-390.66-1059.06-818.6-1345.32-174.97-50.48,107.48-48.65,243.8-14.18,369.49,58.61,336.76,356.86,412.71,494.33,686.26,33.96,62.96,45.47,133.06,42.43,204.24-70.6,201.77-181.5,395.64-334.57,472.58-248.77,138.67-482.53,254.4-708.19,478.67-85.76,82.83-192.2,112.61-304.44,90.91-48.42,7.99-97.41,8.63-145.84,2.91-36.11-2.88-87.61-20.87-90.04-53.43-27.17-139.88,24.72-340.26-96.52-396.69-234.99-124.35-536.07-14.51-692.61-319.39,174.98,216.17,416.05,198.15,643.74,224.79,168.69,20.14,194.85,258.35,182.9,433.9-5.07,44.04,45.62,51.17,77.05,59.28,40.61,6.48,90.96,3.24,141.85,2.59,36.16-4.51,78.53,3.23,110.97-10.11,194.64-80.05,302.29-317.34,490.23-375.05,286.08-86.88,563.84-173.14,743.99-472.56,28.62-49,41.09-123.75,32.8-192.73-8.29-68.97-33.53-127.13-85.44-150.54-218.37-125.59-486.61-247.46-488.45-607.56-11.05-91.96-35.79-199.28-41.32-301.21-5.53-101.93,8.15-198.47,73.94-268.89,448.87-481.12,1073.96-58.44,1434.14,392.03,48.75,61.76,92.88,129.95,132.3,202.52,39.42,72.57,59.38,142.27,63.35,206.19,71.52,152.82,135.19,333.64,262.43,416.97l-28.33,75.07Z" style="fill:none; stroke:#fff; stroke-miterlimit:10; stroke-width:2.98px;"/><path d="M4129.41,1842.51c-245.44-155.65-297.15-512.03-367.68-818.35-34.13-59.98-71.41-116.13-112.58-168.61-309-405.26-892.53-831.05-1234.96-379.71-89.14,112.19-97.65,221.99-61.67,326.44,83.79,305.06,340.48,384.12,492.95,634.72,77.71,117,101.59,268.73,86.09,412.65-5.32,47.71-15.02,94.56-29.97,136.6-211.4,281.09-519.17,413.25-793.68,542.94-217.95,103.62-383.99,454.44-673.77,378.38-52.71,14.31-105.67,21.84-158.33,21.33-39.5-.38-78.83-5.28-117.78-15.25-37.77-10.79-75.15-26.63-97.27-53.02-2.88-176.54-8.36-361.71-170.36-404.18-162.81-53.33-325.62-106.66-468.36-226.99,218.37,125.59,524.31,80.89,661.79,354.44,38.93,73.5-65.28,245.04,43.79,293.21,38.93,13.38,79.38,20.61,120.21,22.9,54.44,3.06,109.55-2.66,164.71-15.71,255.82,27.07,488.78-99.51,643.87-373.1,13.38-44.67,53.32-69.48,94.88-72.59,283.44-10.27,507.47-256.26,680.04-514.3,21.02-45.98,29.75-103.68,31-163.82,2.5-120.27-19.09-241.46-69.18-352.34-80.3-179.58-243.11-232.91-372.72-344.58-81.43-75.58-127.28-193.89-136-310.59-8.72-116.7,24.12-236.51,101.57-318.71,442.18-458.79,1041.33,64.08,1366.33,544.71,22.18,35.88,42.97,73.39,52.97,109.22,13.57,286.95,134.42,561.75,330.62,711.41l-6.52,42.9Z" style="fill:none; stroke:#fff; stroke-miterlimit:10; stroke-width:2.98px;"/><path d="M4347.08,1266.31s-44.36-2.78-123.57-7.75c-34.84-92.95-74.86-174.6-119.38-245.31-44.52-70.71-93.56-130.49-151.02-206.38-56.8-86.99-119.18-161.48-185.76-224.01-67.47-64.33-139.14-116.71-214.53-159.49-277.14-164.77-562.82-296.24-872.82-305.82-183.69,2.81-370.01,82.24-508.28,245.4-153.27,186.12-191.99,451.01-146.76,720.54,1.62,21.71-12.57,55.52-19.26,77.85-16.07,36.68-39.89,69.72-66.12,101.25-39.82,36.7-91.11,54.66-137.53,79.91-51.81-20.15-101.69-16.42-151.56-12.69,27.17,139.88,131.8,197.56,195.71,294.11,39.83,23.54,80.35,43.82,121.22,63.01,122.62,57.59,248.46,105.5,368.59,202.95,53.12,39.7,76.24,125.3,28.8,161.59-126.51,96.79-288.51,54.31-424.96,130.01-57.1,32.92-111.52,70.25-165.05,106.31-85.34,10.65-179.42,94.1-242.47,33.31-90.43-91.49-154.91-283.16-270.48-263.61-387.45,72.63-918.46,14.07-966.33-626.42,30.22,292.48,191.01,542.46,406.13,624.63,171.93,63.56,320.95-67.66,487.2-80.08,132.19-20.8,219.18,136.45,287.91,273.22,68.74,136.78,162,42.47,252.63,20.4,31.92-10.31,68.98-28.48,112.23-55.38,43.25-26.91,88.48-50.76,137.35-68.05,89.01-39.4,190.38-25.15,281.82-31.98,49.88-3.73,104.82-51.5,83.33-115.39-81.36-165.85-225.1-222.65-360.7-296.21-45.2-24.52-89.5-50.9-130.28-83.8-34.76-35.9-73.28-96.25-111.77-154.67-61.1-80.58-27.27-82.86,30.36-70.1,53.16-1.14,115.54-39.21,147.15-75.63,33.03-33.34,45.45-78.61,54.17-125.56,34.88-187.78,36.9-384.43,84.34-569.91,221.78-835.31,1089.76-518.11,1570.74-167.43,63.88,43.29,124.61,94.37,180.69,152.79,56.09,58.42,107.53,124.19,152.86,196.85,53.8,59.17,102.74,118.36,147.37,187.9,44.63,69.55,84.95,149.45,120.35,239.97,79.21,4.97,123.57,7.75,123.57,7.75l-5.87,25.89Z" style="fill:none; stroke:#fff; stroke-miterlimit:10; stroke-width:2.98px;"/><path d="M3917.28,3185.1c-29.4,7.93-73.39-21.53-105.83-8.19,15.94-234.08-33.09-492.4-129.97-711.58-48.44-109.59-106.27-216.67-173.19-310.37-27.56,218.14-153.62,367.51-308.01,454.81-38.6,21.83-78.95,37.5-120.01,38.93-208.59-78.37-390.05,66.19-547.38,198.03-291.34,240.1-591,480.83-943.71,496.86-43.05,13.63-77.78,26.57-112.72,38.92-34.94,12.34-70.1,24.09-105.5,35.2-68.82,13.46-149.56,79.5-218.38,92.96-378.52,136.24-656.36-130.05-888.57-427.96-137.85-132.95-216.71-137.9-216.71-137.9l5.87-25.89s78.86,4.95,216.11,142.37c313.79,438.25,776.08,494.71,1269.68,319.64,55.82-19.59,123.98-38.54,208.67-44.05,117.03-36.28,240.1-67.31,342.49-151.38,348.72-255.31,652.02-670.97,1093.2-583.87,47.19-11.71,89.78-36.05,127.21-69.74,112.3-101.07,178.18-286.35,182.6-467.74,71.06,92.68,132.78,208.44,186.26,323.31,106.96,229.74,166.66,506.68,146.26,755.64,34.06,8.37,76.44,16.12,108.51,11.67l-16.86,30.32Z" style="fill:none; stroke:#fff; stroke-miterlimit:10; stroke-width:2.98px;"/><path d="M3871.83,3770.24c-29.4,7.93-73.4-21.53-105.83-8.19,15.94-234.08-33.09-492.4-129.97-711.58-48.44-109.59-106.27-216.67-173.19-310.37-27.56,218.14-153.62,367.51-308.01,454.81-38.6,21.83-78.95,37.5-120.01,38.93-208.59-78.37-390.05,66.19-547.38,198.03-291.34,240.1-591,480.83-943.71,496.86-43.05,13.63-77.78,26.57-112.72,38.92-34.94,12.34-70.1,24.09-105.5,35.2-68.82,13.46-149.56,79.5-218.38,92.96-378.52,136.24-656.36-130.05-888.57-427.96C80.7,3534.9,1.84,3529.95,1.84,3529.95l5.87-25.89s78.86,4.95,216.11,142.37c313.79,438.25,776.08,494.71,1269.68,319.64,55.82-19.59,123.98-38.54,208.67-44.05,117.03-36.28,240.1-67.31,342.49-151.38,348.72-255.31,652.02-670.97,1093.2-583.87,47.19-11.71,89.78-36.05,127.21-69.74,112.3-101.07,178.18-286.35,182.6-467.74,71.06,92.68,132.78,208.44,186.25,323.31,106.96,229.74,166.66,506.68,146.26,755.64,34.06,8.37,76.44,16.12,108.51,11.67l-16.86,30.32Z" style="fill:none; stroke:#fff; stroke-miterlimit:10; stroke-width:2.98px;"/><path d="M3874.4,3350.46s-44.36-2.78-123.57-7.75c-39.61-2.48-69.77-39.8-95.36-99.6,21.62-116.22,21.38-266.29-5.45-391.18-26.83-124.89-80.26-224.61-165.01-240.1-66.19-13.11-128.15,37.26-196.38,90.67-34.12,26.71-69.94,54.06-107.94,74.18-38,20.12-78.17,33.01-119.7,17.33-22.63-6.89-56.69-15.26-80.82-2.54-430.02,174.06-748.32,612.67-1212.59,595.39-45.55,1.44-89.24,3.36-127.63,11.73-36.96,9.84-74.12,19.48-111.51,28.98-160.14,43.28-316.34,193.47-472.51,219.22-340.12,49.77-584.88-196.67-826.49-431.55-140.32-102.23-219.18-107.18-219.18-107.18l5.87-25.89s78.86,4.95,218.95,112.34c317.56,364.57,734.53,423.56,1184.34,320.12,64.26-14.78,129.19-32.87,194.59-53.86,410-41.11,751.22-284.94,1096.7-583.68,85.76-82.82,181.46-144.56,295.34-148.7,42.46,15.44,85.24,26.32,128.08,18.77,129.33-32.29,251.48-101.21,337.74-224,22.78-22.93,54.89-23.64,73.14-3.18,124.29,209.04,192.02,444.14,140.1,691.66,3.31,61.91,31.99,102.67,71.59,105.16,79.21,4.97,123.57,7.75,123.57,7.75l-5.87,25.89Z" style="fill:none; stroke:#fff; stroke-miterlimit:10; stroke-width:2.98px;"/><path d="M4120.18,1987.98c-261.34-190.08-373.68-574.67-412.43-945.32-21.77-36.86-45.38-71.9-71.86-108.74-26.48-36.84-55.83-75.47-89.09-119.5-215.16-254.33-488.27-441.33-774.96-474.48-126.31-12.39-264.38,41.59-336.96,188.93-20.88,56.14-16.01,121.28,12.17,162.84,54.74,61.41,109.8,122.94,162.37,185.23,247.73,217.28,400.97,586.27,357.18,949.86-9.2,71.91-26.28,143.6-56.06,206.52-192.96,264.72-458.35,404.64-725.37,522.84-186.32,79.43-293.97,316.72-471.17,406.38-79.88,49.64-171.32,56.47-261.56,44.71-50.32,11.49-101.49,15.38-152.77,12.5-38.46-2.16-76.99-8.14-115.27-17.59-38.28-9.45-76.31-22.36-113.79-38.4-43.12-15.41-87.12-44.87-123.62-85.81-90.84-320.7-342.46-443.81-547.45-614.07,269.87,143.58,533.04,309.48,650.4,669.12,37.08,18.61,74.87,33.83,113.01,45.33,38.14,11.5,76.61,19.29,115.04,23.04,51.24,5,102.41,2.82,152.58-7.32,109.66-7.63,219.35,6.01,314.23-66.58,149.83-120.36,242.48-334.7,403.86-412.26,276.14-107.97,515.79-256.88,721.68-490.83,35.83-38.55,57.4-93.58,72.55-150.98,99.03-414.22-87.51-896.72-431-1031.42-35.44-32.24-79.96-72.74-108.85-123.8-28.89-51.06-41.87-112.86-18.05-185.59,28.38-67.62,65.89-125.01,122.46-151.07,411.93-164.52,808.36,148.53,1102.4,521.64,42.01,53.3,81.92,107.83,119.5,162.37,57.9,333.81,135.37,699.18,392.12,874.56l-1.28,47.88Z" style="fill:none; stroke:#fff; stroke-miterlimit:10; stroke-width:2.98px;"/><path d="M4122.32,2150.75c-256.18-255.15-481.65-587.62-479.74-1018.48-1.04-43.89-11.51-91.17-40.09-140.09-28.58-48.92-60.61-99.12-96.82-149.34-223.91-279.03-528.65-441.83-829.53-441.18-41.56,3.11-89.01,39.4-84.95,93.68,2.43,32.57,29.81,63.27,56.37,83.12,94.23,58.46,172.76,139.83,229.03,234.39,205.48,322.61,197.18,770.81,106.77,1126.89-14.8,62.97-39.58,118.36-76.28,157.16-223.57,192.75-473.15,320.56-714.42,447.76-216.33,125.33-339.99,483.9-616.51,490.5-54.32,5.2-105.56,14.88-155.08,25.56-109.08,30.59-222.56,28.96-341.3-20.66-39.58-16.54-79.75-38.41-120.53-66.2-39.83-17.46-75.52-47.54-111.2-77.62-29.3-37.84-56.49-75.01-74.57-107.31-107.71-206.56-284.52-335.26-430.5-499.01,161.8,151.65,347.73,290.59,425.39,546.77,29,52.42,73.8,92.73,123.68,108.7,37.41,28.2,77.98,50.17,118.24,67.51,124,50.53,245.16,59.3,363.23,37.77,53.38-7.01,106.15-20.01,164.3-21.43,265.8,13.91,445.83-261.54,643.1-418.2,236.4-192.33,530.79-279.83,758.16-501.23,30.32-37.4,50.25-90.46,62.55-149.6,81.29-366.32,60.59-866.93-214.03-1121.3-63.85-71.23-138.6-129.56-224.98-166.77-43.19-18.61-24.74-107.32,5.27-153.22,114.14-150.44,282.83-130.3,429.02-75.73,215.93,93.02,410.98,242.19,566.98,459.01,32.8,49.08,61.28,92.83,86.48,134.61,17.08,436.99,189.23,838.95,471.28,1086.89l.69,27.05Z" style="fill:none; stroke:#fff; stroke-miterlimit:10; stroke-width:2.98px;"/></g></svg>