<?xml version="1.0" encoding="UTF-8"?><svg id="uuid-30f7ddb8-ad9a-4eaf-a4ac-59ae4cf6a858" xmlns="http://www.w3.org/2000/svg" viewBox="0 0 3281.99 1341.5"><g id="uuid-0a23e7d5-4283-4b37-9c41-d60409688b89"><path d="M24.29,934.36s31.43,2.32,87.56,6.45c29.06,31.45,61.14,59.05,95.95,82.99,34.8,23.93,72.33,44.2,112.28,60.97,41.84,25.89,87.37,49.32,135.66,70.01,48.29,20.69,99.34,38.63,152.21,53.55,362.22,129.16,1046.61,241.09,1141.83-127.88,14.88-62.19,44.63-118.15,94.47-158.05,17.39-13.13,37.01-24.47,69.55-31.21,133.54,11,383.48,114.64,383.48,19.29,0-78.77-279.7-87.06-297.56-207.28-5.95-29.02,47.61-66.33,95.22-58.04,154.73,37.31,297.56,66.33,470.14,29.02,113.07-29.02,267.8,16.58,309.46,107.79,47.61,111.93,17.85,248.74-77.37,344.09-5.95-8.29-11.9-20.73-5.95-29.02,77.37-111.93,124.97-257.03-11.9-356.53-53.56-37.31-130.93-62.19-202.34-45.6-160.68,33.17-309.46,66.33-476.09,29.02-23.8-4.15-53.56,12.44-77.37,16.58,95.22,78.77,238.05,95.35,363.02,149.24,41.66,20.73,23.8,49.75-11.9,62.19-136.88,45.6-291.61,12.44-416.98-31.48-29.73-1.95-55.96,1.03-76.69,9.65-20.74,8.61-35.99,22.87-41.94,46.7-29.76,157.54-142.83,302.64-368.97,344.09-273.75,49.75-553.46-4.15-802.94-73.78-51.31-11.43-101.11-25.89-148.58-43.33-47.48-17.43-92.63-37.84-134.68-61.16-38.69-19.45-72.36-35.52-103.64-54.7-31.28-19.18-60.16-41.48-86.36-67.06-41.89-33.38-76.18-39.34-104.24-41.41-56.13-4.14-87.56-6.45-87.56-6.45l22.23-38.66Z" style="fill:none; stroke:#fff; stroke-miterlimit:10; stroke-width:2.48px;"/><path d="M984.63,941.19s20.37,1.5,56.74,4.18c18.83,20.38,39.62,38.26,62.17,53.77,22.55,15.51,46.87,28.64,72.75,39.51,27.11,16.78,56.61,31.96,87.9,45.36,31.29,13.4,64.37,25.03,98.63,34.7,234.71,83.69,678.16,156.22,739.86-82.86,9.64-40.29,28.92-76.56,61.22-102.41,11.27-8.51,23.98-15.86,45.07-20.22,86.53,7.13,248.48,74.28,248.48,12.5,0-51.04-181.24-56.41-192.81-134.31-3.86-18.8,30.85-42.98,61.7-37.61,100.26,24.18,192.81,42.98,304.63,18.8,73.27-18.8,173.53,10.75,200.52,69.84,30.85,72.53,11.57,161.18-50.13,222.96-3.86-5.37-7.71-13.43-3.86-18.8,50.13-72.53,80.98-166.55-7.71-231.02-34.7-24.18-84.84-40.29-131.11-29.55-104.12,21.49-200.52,42.98-308.49,18.8-15.42-2.69-34.7,8.06-50.13,10.74,61.7,51.04,154.25,61.78,235.22,96.71,26.99,13.43,15.42,32.23-7.71,40.29-88.69,29.55-188.95,8.06-270.18-20.4-19.27-1.26-36.26.67-49.69,6.25-13.44,5.58-23.32,14.82-27.17,30.26-19.28,102.08-92.55,196.1-239.08,222.96-177.38,32.24-358.62-2.69-520.28-47.81-33.25-7.41-65.51-16.78-96.27-28.07-30.76-11.3-60.02-24.52-87.27-39.63-25.07-12.6-46.89-23.01-67.15-35.45-20.27-12.43-38.98-26.88-55.96-43.45-27.14-21.63-49.36-25.49-67.55-26.83-36.37-2.68-56.74-4.18-56.74-4.18l14.4-25.05Z" style="fill:#fff; stroke-width:0px;"/><path d="M367.03,247.72c52.96,65.96,94.41,132.17,147.91,196,26.75,31.92,56.5,63.24,92.21,93.64,95.22,95.35,113.07,207.28,160.68,315.07,107.12-99.5,124.97-228.01,178.53-344.09,17.85-33.17,53.56-62.18,95.22-70.48,196.39-8.29,368.97-70.48,541.56-136.81,35.71-16.58,77.36-12.44,113.07-29.02,136.88-62.19,267.8-116.08,430.79-120.56,39.11-.82,74.3-4.7,109.49-7.34,34.36-3.54,69.54-4.81,105.81-3.17,40.26.62,70.16-.11,95.23-1.27,208.96-9.67,391.55,26.41,526.14,128.66,22.75,19.18,45.34,41.42,60.94,64.25,34.42,34.77,82.03,63.79,135.59,80.38-11.9,8.29-23.8,24.87-35.71,20.73-113.07-16.58-142.83-103.64-204.46-160.37-17.12-12.91-36.15-24.86-56.04-35.65-63.47-33.06-137.12-55.91-218.99-68.54-27.29-4.21-55.49-7.28-84.54-9.22-29.04-1.94-58.93-2.74-89.58-2.41-39.85-3.72-79.33-5.55-118.38-5.54-39.05,0-77.66,1.86-115.76,5.5-207.27-13.98-391.76,48.21-552.44,143.56-29.76,16.58-71.41,16.58-101.17,24.87-160.68,58.04-321.36,107.79-500.9,122.51-40.66,8.08-73.39,26.74-88.27,55.76-47.61,91.21-47.61,186.56-83.32,281.91-23.8,58.04-77.36,107.79-71.41,169.97-47.61-8.29-113.07-20.73-119.02-53.89-23.8-120.22-41.66-240.45-134.94-343.1-40.29-46.13-89.22-89.43-144.77-129.51-29.76-24.87-35.71-58.04-47.61-87.06-11.9-16.58-23.8-37.31-50.9-45.36l25.03-49.43Z" style="fill:#fff; stroke-width:0px;"/><path d="M182.19,714.85c67.89,23.32,91.69,68.92,113.78,112.63,10.82,18.47,24.45,36.02,46.21,60.87,22.34,39.23,52.36,75.02,88.4,106.89,36.04,31.87,78.1,59.8,124.51,83.3,242.5,128.08,587.66,256.6,891.17,152.96,124.97-41.46,214.24-132.66,208.29-232.16-2.98-35.24,8.93-78.77,9.58-120.51,1.16-18.51.25-36.06-6.15-52.09-6.4-16.03-18.31-30.54-39.14-42.98-83.32-49.75-232.1-41.46-273.75-116.08-41.66-62.18,65.46-116.08,136.88-145.1,83.32-33.17,172.58-41.46,267.8-41.46,47.61-4.15,95.22-12.44,124.97-37.31,53.56-33.17,114.56-58.04,178.62-71.02,32.03-6.49,64.83-10.01,97.17-9.87,39.62,6.26,111.04,14.55,111.04,35.28,23.8,203.14,333.26,132.66,517.75,174.12,119.02,24.87,184.49,103.64,202.34,186.56-95.22-194.85-404.68-153.39-642.73-186.56-95.22-12.44-71.41-99.5-136.88-132.66-53.56-29.02-119.02-12.44-174.76,16.27-30.15,8.59-61.74,16.51-93.92,23.5-128.72,27.94-260.97,36.24-403.8,55.58-47.61,8.29-119.02,37.31-95.22,82.91,17.85,29.02,65.46,41.46,107.12,53.89,77.36,20.73,190.44,29.02,217.16,90.82,3.03,19.04-5.89,37.69-15.07,56.78-9.18,19.08-18.62,38.6-13.69,58.97-.28,23.61-1.81,47.43-5.04,71.08-16.16,118.26-74.74,232.26-230.96,294.45-321.36,132.66-696.29-12.44-969.51-144.32-41.14-20.73-79.18-44.41-113-70.81-33.83-26.39-63.44-55.49-87.72-87.04-24.96-18.62-48.16-38.55-69.35-60.93-21.19-22.38-40.37-47.21-57.35-74.56-47.57-36.86-79-39.17-79-39.17l64.26-52.26Z" style="fill:#fff; stroke-width:0px;"/><path d="M320.94,357.94c37.33,41.75,80.21,82.38,123.15,123.16,42.94,40.78,85.96,81.7,123.56,124,75.2,81.5,128.76,181,116.86,280.5,0,16.58,5.95,33.17,25.94,47.56,22.78,20.12,47.79,39.13,74.74,56.84,80.84,53.13,179.03,94.59,286.15,119.46-28.27-22.8-53.56-47.42-72.74-72.66-92.57-154.07-81.36-354.25,34.52-496.31,16.55-20.29,35.24-39.4,56.07-57.02,267.8-91.21,553.46-136.81,809.36-265.32,83.32-41.46,196.39-53.89,302.12-43.13,39.16-5.72,79.02-8.83,119.72-8.55,40.69.28,82.22,3.96,124.71,11.83,43.59,6.21,77.35,9.4,111.15,13.86,33.15,4.2,66.33,9.67,99.49,16.5,24.71,5.2,48.58,11.32,71.6,18.38,23.01,7.06,44.93,15.07,64.54,23.98,88.6,37.61,130.26,103.94,189.77,166.12,29.76,24.87,83.32,33.17,101.17,62.19,5.95,8.29-23.8,16.58-35.71,33.17-32.73-14.51-65.28-32.92-94.94-52.46-29.66-19.54-53.25-38.29-69.84-57.84-22.68-24.43-40.53-53.45-61.63-80.54-21.1-27.09-45.45-52.25-85.21-71.48-19.74-9.08-42.85-16.83-68.26-23.23-31.79-4.86-63.73-8.72-95.75-11.59-32.9-3.29-73.47-10.3-117.57-16.49-40.98-7.15-81.09-10.46-120.4-10.61-39.32-.15-77.84,2.87-115.68,8.36-140.75-7.49-277.62,17.38-390.7,79.57-47.61,29.02-89.27,62.19-148.78,74.62-83.32,16.58-160.68,33.17-238.05,62.18-107.12,33.17-226.14,37.31-333.34,75.04-20.89,9.96-36.62,25.84-47.53,45.18-77.37,145.1-130.93,335.8,7.58,476.92,31.33,33.18,71.28,64.09,123.35,91.04,11.9,4.15,35.71,20.73,23.8,24.87-188.45,48.37-385.17-41.46-515.69-146.6-26.1-21.03-49.56-42.67-69.77-63.94,5.02-48.93-.51-95.74-14.63-140.5-14.11-44.69-36.85-87.47-66.22-128.21-58.73-81.48-144.02-155.09-240.21-221.46l13.3-67.4Z" style="fill:none; stroke:#fff; stroke-miterlimit:10; stroke-width:2.48px;"/><path d="M59.34,873.4s31.43,2.32,87.56,6.45c24.63,35.8,53.11,66.96,84.99,93.75,31.89,26.79,67.18,49.21,105.69,68.75,40.39,32.23,85.03,60.17,132.88,83.9,47.85,23.73,98.9,43.26,152.12,58.67,264.27,90.37,579.68,169.14,871.29,90.37,172.58-49.75,273.75-178.26,255.9-310.93-4.46-23.84,5.21-41.46,22.87-55.58,18.48-13.88,44.95-24.27,83.2-30.78,27.31-4.5,55.84-8.82,86.56-8.01,63.27,23.89,146.58,52.91,223.95,28.04-53.56-82.91-196.39-107.79-250.62-188.98-21.34-18.97-42.99-27.84-62.66-36.41-39.33-17.13-70.58-39.93-79.5-73.1,43.15-5.18,83.69-14.77,122.97-26.49,73.42-19.11,162.69-43.99,222.2-19.11,83.32,37.31,148.78,124.37,267.8,107.79,142.83-16.58,279.7-58.04,410.63,8.29,142.83,74.62,190.44,211.43,124.97,323.36,29.76-103.64,23.8-228.01-113.07-298.49-154.73-74.62-321.36-29.02-482.04-29.02-89.27,0-142.83-66.33-214.24-87.06-53.56-16.58-130.93,16.58-199.5,20.25-31.48,11.88-63.84,22.24-98.06,29.5,17.85,12.44,35.71,23.84,55.12,34.2,19.41,10.36,39.88,24.41,62.3,51.19,67.07,84.58,186.09,117.75,299.17,171.64,11.9,4.15,35.71,20.73,23.8,24.87-89.27,66.33-226.14,4.15-324.98-22.96-35.83.85-65.69,4.34-86.86,12.6-19.62,8.55-34.5,20.73-40.45,39.38-29.76,107.79-35.71,215.58-172.58,290.2-315.41,165.83-708.19,62.19-1015.95-39.77-52.47-15.35-102.81-34.43-150.08-57.26-47.27-22.84-91.48-49.44-131.7-79.84-38.71-18.44-74.67-39.99-107.63-65.44-32.97-25.45-62.95-54.78-89.59-88.2-56.13-4.14-87.56-6.45-87.56-6.45l11.11-19.33Z" style="fill:#fff; stroke-width:0px;"/><path d="M429.95,163.02c22.47,1.24,64.13-2.91,64.13,5.38-2.98,89.13,34.22,175.16,92.24,254.96,29.01,39.9,62.35,79.75,98.27,119.95,35.63,39.66,77.29,76.97,118.95,110.13-11.9-99.5,52.9-204.52,167.95-263.48,28.76-14.74,60.64-25.71,95.22-28.59,296.23,43.33,510.47-122.49,766.37-201.26,113.07-37.31,238.05-41.46,362.15-46.16,29.37-2.98,55.63-5.92,80.05-8.68,24.42-2.76,47-5.34,69.02-7.61,265.43-28.38,503.42-1.45,662.34,126.37,22.7,18.26,43.79,38.58,63.12,61.09,41.18,31.33,76.93,48.4,102.38,57.8,25.45,9.4,40.11,10.87,40.11,10.87l-13.59,17.63c-56.32-12.33-103.93-41.35-140.97-72.01-19.11-20.8-40.54-39.98-63.47-57.38-165.47-123.53-404.2-159.41-674.82-133.41-30.93,2.97-71.61,5.19-113.57,9.42-116.84,4.74-241.81.6-354.88,37.91-267.8,91.2-499.9,252.89-815.31,236.3-31.74,6.22-58.69,16.01-81.69,28.56-115.03,62.76-131.56,194.62-156.35,294.8-29.76-45.6-71.41-82.91-103.63-128.19-35.73-43.96-71.19-88.68-104.67-130.39-66.95-83.43-119.02-170.49-113.07-267.92,0-4.15-41.66,8.29-66.89-2.22l20.61-23.89Z" style="fill:none; stroke:#fff; stroke-miterlimit:10; stroke-width:2.48px;"/><path d="M253.55,648.52c115.55,50.53,181.02,150.02,185.34,241.86,10.26,26.2,33.67,54.05,60.68,79.7,27.01,25.65,58.02,50.18,93.45,72.07,234.33,158.53,710.42,340.94,948.47,104.64,41.66-39.38,47.61-91.21,29.76-139.92-23.8-129.55-232.1-166.86-315.41-274.65-20.83-24.87-25.29-51.82-19.34-78.77,61-74.62,150.27-145.1,263.34-169.97,184.49-45.6,357.07-82.91,529.65-161.68,65.46-29.02,142.83-37.31,221.58-25.88,34.9-1.66,69.81-.51,103.98,3.04,25.56,2.12,61.26,10.41,61.26,22.85,11.9,53.89-35.71,128.52,47.61,153.39,160.68,53.89,380.87,20.73,476.09,140.95-113.07-87.06-285.66-87.06-446.34-103.64-119.02-12.44-124.97-103.64-107.12-169.97,5.95-16.58-29.76-20.73-51.7-24.7-28.56-3.61-64.58-3.81-100.85-5.01-25.98.69-55.74-3.46-79.54.69-142.83,24.87-232.1,111.93-368.97,128.52-208.29,24.87-410.63,49.75-554.82,158.34-22.98,17.79-35.84,45.83-33.6,72.26,2.23,26.43,17.11,49.23,52.82,59.59,148.78,53.89,333.26,107.79,315.41,244.6,2.98,35.24,14.88,76.7,13.39,115.56-1.49,38.87-16.37,75.14-66.95,100.01-345.17,169.97-767.7-8.29-1000.15-189.59-31.42-24.84-59.21-51.99-83.41-80.66-24.2-28.68-34.7-55.71-34.13-80.1-42.78-60.07-78.49-130.54-164.64-165.8l24.16-27.71Z" style="fill:#fff; stroke-width:0px;"/><path d="M280.02,599.8c166.45,66.08,184.31,202.89,218.22,321.22,21.11,23.75,44.66,46.13,71.18,67.23,198.42,162.67,591.2,340.94,859,179.26,69.43-40.08,81.33-81.53,61.27-122.22-43.42-118.23-221.96-155.54-317.17-255.04-49.1-46.64-58.02-104.94-39.33-159.16,6.33-17.97,15.72-35.48,28.61-51.03,165.46-100.75,391.6-142.2,593.94-183.66,160.68-33.17,297.56-161.68,499.81-124.57,38.29-3.94,76.39-5.29,113.85-3.61,28.1,1.27,55.84,4.24,83.04,9.13,26.32,5.17,52.09,12.25,66.43,22.9-7.34,67.12-13.29,137.6,99.78,158.33,113.07,24.87,226.14,49.75,321.36,99.5-148.78-53.89-368.97-45.6-452.29-153.39-23.8-29.02,59.51-91.21-15.57-112.59-27-6.19-55.42-10.08-84.36-12.11-38.59-2.71-78.14-2.1-118.1,1.29-180.69-17.54-353.27,23.92-478.25,123.41-11.9,16.58-41.66,24.87-71.41,24.87-202.34-4.15-374.92,82.91-511.51,176.01-17.41,16.87-26.7,38.53-30.79,61.33-8.18,45.6.74,92.24,30.5,135.77,47.61,70.48,160.68,95.35,247.02,141.44,53.95,31.01,80.3,77.24,80.3,121.81s-29.76,89.13-89.27,118.15c-339.22,161.68-737.94-53.89-943.75-245.64-13.88-14.25-26.68-29.09-31.9-42.98,5.61-109.36-65.8-217.15-197.52-279.56l6.93-16.11Z" style="fill:none; stroke:#fff; stroke-miterlimit:10; stroke-width:2.48px;"/><path d="M94.39,812.45s31.43,2.32,87.56,6.45c19.86,36.29,44,68.43,71.94,96.55,27.94,28.12,59.66,52.21,96.54,82.66,35.81,34.65,76.26,64.71,120.33,90.34,44.61,26.35,92.85,48.27,144.25,66.66,188.54,70.44,384.93,128.48,605.12,140.92,130.93,4.15,267.8-20.73,374.92-78.77,119.02-66.33,160.68-165.83,142.83-269.47,0-8.29,11.9-20.73,17.85-29.02,13.39-13.47,32.11-25.35,52.46-36.57,30.31-12.81,67.77-18.17,102.16-26.44,35.81,9.12,71.52,9.12,107.23,9.12-11.9-53.89-83.32-78.77-123.68-117.25-27.1-10.07-54.87-18.92-82.95-27.37-84.23-25.35-171.27-47.12-251.61-87.54-35.71-16.58-47.61-49.75-11.9-62.19,95.22-33.17,208.29-12.44,309.46-37.31,42.4-10.88,83.13-23.51,123.16-35.69,61.33-1.62,132.74-30.64,174.4-5.77,59.51,37.31,95.22,111.93,178.53,107.79,279.7-16.58,654.63,20.73,654.63,265.32-5.95-111.93-107.12-211.43-255.9-248.74-119.02-29.02-232.1,16.58-351.12,16.58-95.22,4.15-148.78-58.04-190.44-111.93-41.66-53.89-113.07-20.73-178.77-14.92-23.27,3.01-50.63,8.86-82.85,17.85-32.22,8.99-65.7,16.76-101.4,21.95-65.46,12.44-136.88,4.15-202.34,4.15-35.71,0-77.37,16.58-65.46,41.46,49.1,65.29,148.41,90.95,241.03,122.73,30.88,10.59,61.01,21.87,88.29,35.52,22.84,14.62,47.05,38.63,71.34,61.91,39.21,32.33,15,32.24-25.35,25.76-37.91-1.08-84.35,11.61-108.78,24.54-25.29,11.72-36.54,28.56-45.24,46.14-34.83,70.32-46.73,144.95-90.37,214.04-202.34,310.93-803.41,165.83-1127.18,19-43.18-18.25-83.69-39.38-120.51-63.16-36.82-23.78-69.95-50.22-98.35-79.09-35.15-24-66.84-47.86-94.92-75.54-28.07-27.68-52.53-59.17-72.91-94.55-56.13-4.14-87.56-6.45-87.56-6.45l5.56-9.66Z" style="fill:none; stroke:#fff; stroke-miterlimit:10; stroke-width:2.48px;"/><path d="M502.48,95.95c21.35-2.18,51.11,10.26,74.91,6.11-23.8,88.44-2.65,187.94,54.66,273.92,28.65,42.99,64.13,85.3,106.78,122.78,31.23-82.06,128.93-135.21,243.48-163.98,28.64-7.19,58.2-12,87.51-11.38,144.33,35.68,281.21-14.06,400.23-59.67,220.19-82.91,446.34-165.83,698.3-161.9,31.37-3.95,56.79-7.88,82.32-11.58,25.53-3.69,51.19-7.16,76.98-10.37,49.71-3.16,110.71-25.95,160.42-29.1,276.73-40.99,460.37,68.02,609.83,187.75,91.07,54.4,146.95,58.52,146.95,58.52l-5.56,9.66s-55.88-4.12-146.28-60.2c-200.07-175.34-526.19-209.9-886.92-157.43-40.78,5.86-90.32,11.12-150.9,10.81-85.25,10.46-174.52,18.75-251.88,47.77-261.85,87.06-499.9,236.3-809.36,190.7-34.22,3.11-65.84,11.14-94.28,22.87-85.33,35.2-142.09,103.69-154.89,172.45-45.66-37.22-83.44-82.93-115.4-128.07-63.92-90.28-91.69-197.15-63.92-291.12-23.8-4.15-53.56-8.29-76.63-7.51l13.62-11.04Z" style="fill:#fff; stroke-width:0px;"/><path d="M541.81,34.37s31.43,2.32,87.56,6.45c28.07,2.07,47.55,17.1,62.59,40.53-21.58,43.52-29.39,100.52-16.93,148.71,12.46,48.19,45.19,87.58,104.7,95.87,46.42,6.86,93.21-10.51,144.63-28.86,25.71-9.17,52.67-18.54,80.8-25.11,28.12-6.56,57.41-10.32,86.14-3.18,15.75,3.26,39.55,7.4,57.4,3.26,315.41-53.89,565.36-211.43,894.96-191.69,32.51.74,63.71,1.26,91.49-.83,26.84-2.69,53.81-5.29,80.93-7.84,116.31-11.89,235.51-64.49,348.06-69.84,244.79-9.25,405.93,91.29,565.44,187.35,94.46,42.81,150.34,46.92,150.34,46.92l-5.56,9.66s-55.88-4.12-149.9-48.88c-206.68-147.46-500.39-181.7-826.13-155.19-46.53,3.79-93.72,8.82-141.4,14.93-294.08,3.97-549.98,86.89-811.83,190.53-65.46,29.02-136.88,49.75-218.18,48.09-29.41-7.07-59.28-12.41-90.19-10.76-93.79,8.59-184.42,31.3-252.37,75.48-17.44,8.06-40.33,7.42-52.24-.87-77.37-82.91-113.07-174.12-62.94-266.64.94-23.61-17.31-39.9-45.37-41.97-56.13-4.14-87.56-6.45-87.56-6.45l5.56-9.66Z" style="fill:none; stroke:#fff; stroke-miterlimit:10; stroke-width:2.48px;"/><path d="M294.33,544.82c175.95,79.6,235.46,228.85,243.32,370.71,13.54,14.62,28.48,28.59,45.37,43.33,16.89,14.74,35.73,30.24,57.07,47.91,139.65,102.69,324.13,181.46,526.47,202.19,89.27,8.29,190.44-8.29,249.95-62.18,17.85-20.73,17.85-45.6,0-62.19-35.71-24.87-71.63-49.81-105.74-74.95-164.81-89.55-254.27-234.03-203.74-370.86,10.38-27.05,26.35-53.79,50.9-76.84,151.46-95.05,347.85-140.66,544.24-177.97,136.88-24.87,226.14-111.93,357.07-140.95,59.51-16.58,124.97-16.58,188.59-9.56,36.44-2.94,73.07-2.96,109.43-.41,27.27,1.91,54.38,5.28,81.13,9.95,26.75,4.67,53.14,10.66,78.97,17.81,29.88,7.08,59.64,19.51,83.44,36.09,47.61,124.37,220.19,178.26,357.07,248.74-184.49-62.19-363.02-132.66-427.44-272.57-25.41-8.12-51.5-14.97-78.04-20.42-26.54-5.45-53.52-9.5-80.68-12.02-36.21-3.35-72.76-3.98-109.02-1.55-78.48-.22-155.84-8.51-227.26,16.37-113.07,41.46-190.44,120.23-309.46,145.1-202.34,33.17-380.87,82.91-539.91,165.92-27.56,13.62-45.84,33.91-59.69,55.28-92.54,154.5,14.59,343.03,251.96,403.93,23.52,13.25,53.05,29.89,70.91,50.1,17.85,20.21,23.8,44.05,2.98,71-23.8,24.87-53.56,45.6-95.22,53.89-302.02,50.78-567.59-79.35-757.07-229.39-27.07-21.43-52.58-43.28-76.43-65.05-23.46-128.41-59.17-269.37-232.62-343.26l3.46-18.15Z" style="fill:none; stroke:#fff; stroke-miterlimit:10; stroke-width:2.48px;"/><path d="M301.47,482.94c168.81,104.17,311.63,236.83,287.35,400.4-1.59,16.7,3.34,34.95,21.09,54.34,17.74,19.39,37.87,39.36,60.98,59.46,144.56,112.32,352.85,182.8,567.09,191.09,29.76,0,65.46-12.44,65.46-33.17,0-12.44-17.85-24.87-35.71-33.17-63.98-24.87-115.55-58.01-150.59-95.52-129.12-128.35-99.36-298.32-16.05-430.99,13.89-23.49,34.48-43.83,62.67-57.52,169.43-66.85,353.91-108.31,532.45-149.77,160.68-41.46,267.8-174.12,465.01-168.77,38.95-.43,75.95-2.65,111.77-5.3,79.29-8.52,159.99-4.68,241.88,17.53,27.3,7.4,54.73,16.85,82.29,28.56,27.43,7.76,51.23,20.2,75.04,32.63,18.85,15.2,36.22,30.09,47.38,42.87,65.69,81.5,184.72,135.39,279.93,201.73-107.12-62.19-232.1-120.23-273.75-219.72-17.85-20.73-47.61-37.31-82.27-44.79-25.13-11.77-52.85-21.27-80.58-28.99-85.59-22.71-171.38-29.48-256.59-24.65-38.37,1.15-76.63,4.59-118.11,3.48-188.49-12.83-331.32,86.67-480.1,140.56-178.53,66.33-392.78,91.2-566.43,168.83-23.57,13.34-40.59,32.93-52.49,55.04-77.37,136.81-89.27,327.51,92.7,431.91,41.67,28.86,91.78,53.14,151.29,69.72,29.76,8.29,11.9,41.46-11.9,58.04-89.27,53.89-208.29,41.46-309.46,16.58-148.78-41.46-279.7-103.64-379.23-190.41-20.74-19.57-38.68-36.99-54.4-53.57,11.1-166.44-90.07-323.98-277.68-426.14l.95-10.29Z" style="fill:#fff; stroke-width:0px;"/></g></svg>