<?xml version="1.0" encoding="UTF-8"?>
<svg id="Livello_2" data-name="Livello 2" xmlns="http://www.w3.org/2000/svg" xmlns:xlink="http://www.w3.org/1999/xlink" viewBox="0 0 764.59 265.73">
  <defs>
    <style>
      .cls-1 {
        isolation: isolate;
      }

      .cls-2 {
        fill: #221f20;
      }

      .cls-3 {
        fill: #818284;
      }

      .cls-4 {
        fill: #fff;
      }

      .cls-5 {
        fill: url(#Sfumatura_senza_nome_5-2);
        stroke: url(#Sfumatura_senza_nome_6-2);
      }

      .cls-5, .cls-6, .cls-7 {
        stroke-miterlimit: 10;
        stroke-width: 1.09px;
      }

      .cls-6 {
        fill: url(#Sfumatura_senza_nome_5-3);
        stroke: url(#Sfumatura_senza_nome_6-3);
      }

      .cls-7 {
        fill: url(#Sfumatura_senza_nome_5);
        stroke: url(#Sfumatura_senza_nome_6);
      }
    </style>
    <linearGradient id="Sfumatura_senza_nome_5" data-name="Sfumatura senza nome 5" x1="5333.78" y1="-4488.5" x2="5554.06" y2="-4488.5" gradientTransform="translate(-6824.03 1659.66) rotate(-52.13) scale(1 -1)" gradientUnits="userSpaceOnUse">
      <stop offset="0" stop-color="#dcb06c"/>
      <stop offset=".1" stop-color="#c5a28a"/>
      <stop offset=".3" stop-color="#8b81b8"/>
      <stop offset=".34" stop-color="#7d7ab5"/>
      <stop offset=".64" stop-color="#cca683"/>
      <stop offset=".7" stop-color="#cd9777"/>
      <stop offset=".81" stop-color="#d87861"/>
      <stop offset=".84" stop-color="#db6d58"/>
      <stop offset=".99" stop-color="#dc9381"/>
    </linearGradient>
    <linearGradient id="Sfumatura_senza_nome_6" data-name="Sfumatura senza nome 6" x1="1506.24" y1="-8980.83" x2="1638.6" y2="-8980.83" gradientTransform="translate(-4019.9 8270.7) rotate(-143.48) scale(1 -1)" gradientUnits="userSpaceOnUse">
      <stop offset="0" stop-color="#dcb06c"/>
      <stop offset=".05" stop-color="#dcb06c"/>
      <stop offset=".16" stop-color="#7d7ab5"/>
      <stop offset=".29" stop-color="#db6d58"/>
      <stop offset=".39" stop-color="#db6d58"/>
      <stop offset=".53" stop-color="#dcb06c"/>
      <stop offset=".71" stop-color="#db6d58"/>
      <stop offset=".84" stop-color="#dc9381"/>
      <stop offset=".9" stop-color="#6862a6"/>
      <stop offset=".99" stop-color="#dc9381"/>
    </linearGradient>
    <linearGradient id="Sfumatura_senza_nome_5-2" data-name="Sfumatura senza nome 5" x1="4721.15" y1="-1530.41" x2="4589.57" y2="-1616.59" gradientTransform="translate(-4732.49 225.19) rotate(-20.25) scale(1 -1)" xlink:href="#Sfumatura_senza_nome_5"/>
    <linearGradient id="Sfumatura_senza_nome_6-2" data-name="Sfumatura senza nome 6" x1="1371.71" y1="-9073.42" x2="1614.91" y2="-9073.42" xlink:href="#Sfumatura_senza_nome_6"/>
    <linearGradient id="Sfumatura_senza_nome_5-3" data-name="Sfumatura senza nome 5" x1="4275.35" y1="-1621.4" x2="4146.87" y2="-1619.18" gradientTransform="translate(-4348.79 466.48) rotate(-24.47) scale(1 -1)" xlink:href="#Sfumatura_senza_nome_5"/>
    <linearGradient id="Sfumatura_senza_nome_6-3" data-name="Sfumatura senza nome 6" x1="1372.14" y1="-8964.57" x2="1533.85" y2="-8964.57" xlink:href="#Sfumatura_senza_nome_6"/>
  </defs>
  <g id="Livello_1-2" data-name="Livello 1">
    <g>
      <g id="uuid-92a9c98a-fc32-4be4-bad8-5c7bd7c7f4bc">
        <g class="cls-1">
          <path class="cls-7" d="M8.87,79.02L93.8,3.54l28.46,141.94L26.69,230.41,1.03,102.42c-1.73-8.64,1.25-17.55,7.84-23.41Z"/>
          <path class="cls-5" d="M93.8,3.54l130.78,24.85c9.26,1.77,16.53,8.96,18.38,18.2l25.39,126.65-146.11-27.77L93.8,3.54Z"/>
          <path class="cls-6" d="M122.27,145.48l146.1,27.77-85.69,76.15c-6.23,5.54-14.67,7.86-22.85,6.32l-133.13-25.29,95.57-84.93v-.02Z"/>
        </g>
      </g>
      <g>
        <path class="cls-2" d="M348.12,7.09h18.01l-14.48,74.42h-18.06l14.53-74.42Z"/>
        <path class="cls-2" d="M432.39,7.09l-3.27,17.23h-20.97l-11.16,57.19h-17.96l11.16-57.19h-21.02l3.27-17.23h59.94Z"/>
        <path class="cls-2" d="M469.75,81.5l-1.92-10.85h-26.67l-6.23,10.85h-19.46L459.37,7.09h14.32l15.21,74.42h-19.15ZM449.98,55.35h15.1l-3.48-19.98-11.62,19.98Z"/>
        <path class="cls-2" d="M508.3,7.09h18.01l-11.16,57.19h33.01l-3.37,17.23h-51.01l14.53-74.42Z"/>
        <path class="cls-2" d="M566.1,7.09h18.01l-14.48,74.42h-18.06l14.53-74.42Z"/>
        <path class="cls-2" d="M628.47,81.5l-1.92-10.85h-26.67l-6.23,10.85h-19.46l43.9-74.42h14.32l15.21,74.42h-19.15ZM608.69,55.35h15.1l-3.48-19.98-11.62,19.98Z"/>
        <path class="cls-2" d="M667.02,7.09h14.79l19.46,38.82,7.84-38.82h18.01l-14.48,74.42h-14.69l-19.62-38.66-7.79,38.66h-18.06l14.53-74.42Z"/>
        <path class="cls-2" d="M375.47,99.2c6.37,0,11.73,2.1,16.09,6.31s6.54,9.37,6.54,15.49c0,5.29-1.38,10.06-4.15,14.3-2.77,4.24-6.49,7.51-11.16,9.81-4.67,2.3-9.81,3.45-15.41,3.45h-10.85l-4.88,25.07h-18.06l14.53-74.42h27.35ZM369.5,131.32c2.77,0,5.23-.82,7.4-2.46,2.16-1.64,3.24-3.62,3.24-5.94,0-1.83-.66-3.37-1.97-4.62-1.32-1.25-2.92-1.87-4.83-1.87h-10.53l-2.96,14.89h9.65Z"/>
        <path class="cls-2" d="M457.56,123.74c-.9,4.5-2.59,8.43-5.06,11.78-2.47,3.36-5.56,5.95-9.26,7.78l12.97,30.31h-19.67l-10.54-27.4h-7.89l-5.29,27.4h-18.06l14.53-74.42h28.59c3.08,0,5.98.66,8.72,1.97,2.73,1.32,5.01,3.06,6.83,5.24,1.82,2.18,3.12,4.79,3.92,7.84.79,3.04.86,6.21.21,9.5ZM423.88,116.53l-2.75,14.27h8.93c2.21,0,4.26-.67,6.12-2.02,1.87-1.35,3.01-3.1,3.42-5.24.42-2.08.05-3.76-1.09-5.06-1.14-1.3-2.84-1.95-5.08-1.95h-9.55Z"/>
        <path class="cls-2" d="M507.27,98.16c6.64,0,12.51,1.39,17.62,4.18,5.1,2.79,9.04,6.65,11.81,11.6,2.77,4.95,4.15,10.57,4.15,16.87,0,7.85-1.94,15.15-5.81,21.87-3.88,6.73-9.15,12.07-15.83,16.04-6.68,3.96-13.93,5.94-21.74,5.94-6.61,0-12.46-1.38-17.57-4.15-5.1-2.77-9.05-6.62-11.83-11.55s-4.18-10.53-4.18-16.79c0-5.92,1.15-11.58,3.45-17,2.3-5.41,5.39-10.09,9.26-14.04,3.87-3.94,8.49-7.09,13.86-9.44,5.36-2.35,10.97-3.53,16.81-3.53ZM505.14,115.7c-3.88,0-7.56,1.1-11.05,3.3-3.5,2.2-6.31,5.21-8.46,9.03-2.15,3.82-3.22,7.97-3.22,12.43,0,4.95,1.58,8.97,4.75,12.07,3.17,3.1,7.34,4.64,12.53,4.64,2.91,0,5.74-.66,8.51-1.97,2.77-1.31,5.2-3.07,7.29-5.27,2.09-2.2,3.78-4.83,5.06-7.89,1.28-3.06,1.92-6.25,1.92-9.57,0-4.95-1.59-8.98-4.77-12.09-3.18-3.11-7.37-4.67-12.56-4.67Z"/>
        <path class="cls-2" d="M540.83,173.62l14.53-74.42h21.38l10.64,48.06,30.83-48.06h19.2l-14.43,74.42h-17.96l7.84-39.54-24.24,39.54h-13.29l-8.56-39.54-7.89,39.54h-18.06Z"/>
        <path class="cls-2" d="M673.99,99.2c6.37,0,11.73,2.1,16.09,6.31s6.54,9.37,6.54,15.49c0,5.29-1.38,10.06-4.15,14.3-2.77,4.24-6.49,7.51-11.16,9.81-4.67,2.3-9.81,3.45-15.41,3.45h-10.85l-4.88,25.07h-18.06l14.53-74.42h27.35ZM668.02,131.32c2.77,0,5.23-.82,7.4-2.46,2.16-1.64,3.24-3.62,3.24-5.94,0-1.83-.66-3.37-1.97-4.62-1.32-1.25-2.92-1.87-4.83-1.87h-10.53l-2.96,14.89h9.65Z"/>
        <path class="cls-2" d="M764.59,99.2l-3.27,17.23h-20.97l-11.16,57.19h-17.96l11.16-57.19h-21.02l3.27-17.23h59.94Z"/>
        <path class="cls-2" d="M333.59,265.73l14.53-74.42h27.97c4.32,0,8.17.97,11.55,2.91,3.37,1.94,5.84,4.53,7.4,7.79,1.56,3.25,1.97,6.75,1.25,10.48-.62,3.08-2.04,5.93-4.26,8.56-2.21,2.63-4.93,4.52-8.15,5.66,3.46.9,6.1,3.08,7.91,6.54,1.82,3.46,2.26,7.49,1.32,12.09-.69,3.81-2.38,7.27-5.06,10.41-2.68,3.13-5.98,5.58-9.89,7.34-3.91,1.76-8.01,2.65-12.3,2.65h-32.28ZM354.97,248.5h11.57c2.21,0,4.19-.68,5.92-2.05,1.73-1.37,2.84-3.09,3.32-5.16.76-4.67-1.57-7-7.01-7h-11.05l-2.75,14.22ZM360.37,220.58h9.13c2.01,0,3.81-.59,5.4-1.76,1.59-1.18,2.59-2.65,3.01-4.41.31-1.94-.04-3.4-1.04-4.38-1-.99-2.68-1.48-5.03-1.48h-9.03l-2.44,12.04Z"/>
        <path class="cls-2" d="M444.54,265.73l-1.92-10.85h-26.67l-6.23,10.85h-19.46l43.9-74.42h14.32l15.21,74.42h-19.15ZM424.76,239.57h15.1l-3.48-19.98-11.62,19.98Z"/>
        <path class="cls-2" d="M530.83,191.31l-3.27,17.23h-20.97l-11.16,57.19h-17.96l11.16-57.19h-21.02l3.27-17.23h59.94Z"/>
        <path class="cls-2" d="M594.34,191.31l-3.27,17.23h-20.97l-11.16,57.19h-17.96l11.16-57.19h-21.02l3.27-17.23h59.94Z"/>
        <path class="cls-2" d="M600.77,191.31h18.01l-11.16,57.19h33.01l-3.37,17.23h-51.01l14.53-74.42Z"/>
        <path class="cls-2" d="M658.57,191.31h46.71l-3.32,17.23h-28.7l-2.13,10.64h25.64l-3.32,17.23h-25.58l-2.44,12.09h28.65l-3.27,17.23h-46.76l14.53-74.42Z"/>
      </g>
      <g>
        <path class="cls-3" d="M344.58,3.54h18.01l-14.48,74.42h-18.06l14.53-74.42Z"/>
        <path class="cls-3" d="M428.85,3.54l-3.27,17.23h-20.97l-11.16,57.19h-17.96l11.16-57.19h-21.02l3.27-17.23h59.94Z"/>
        <path class="cls-3" d="M466.21,77.96l-1.92-10.85h-26.67l-6.23,10.85h-19.46L455.83,3.54h14.32l15.21,74.42h-19.15ZM446.43,51.81h15.1l-3.48-19.98-11.62,19.98Z"/>
        <path class="cls-3" d="M504.75,3.54h18.01l-11.16,57.19h33.01l-3.37,17.23h-51.01l14.53-74.42Z"/>
        <path class="cls-3" d="M562.56,3.54h18.01l-14.48,74.42h-18.06l14.53-74.42Z"/>
        <path class="cls-3" d="M624.93,77.96l-1.92-10.85h-26.67l-6.23,10.85h-19.46L614.55,3.54h14.32l15.21,74.42h-19.15ZM605.15,51.81h15.1l-3.48-19.98-11.62,19.98Z"/>
        <path class="cls-3" d="M663.47,3.54h14.79l19.46,38.82,7.84-38.82h18.01l-14.48,74.42h-14.69l-19.62-38.66-7.79,38.66h-18.06l14.53-74.42Z"/>
        <path class="cls-3" d="M371.93,95.65c6.37,0,11.73,2.1,16.09,6.31s6.54,9.37,6.54,15.49c0,5.29-1.38,10.06-4.15,14.3-2.77,4.24-6.49,7.51-11.16,9.81-4.67,2.3-9.81,3.45-15.41,3.45h-10.85l-4.88,25.07h-18.06l14.53-74.42h27.35ZM365.96,127.78c2.77,0,5.23-.82,7.4-2.46,2.16-1.64,3.24-3.62,3.24-5.94,0-1.83-.66-3.37-1.97-4.62-1.32-1.25-2.92-1.87-4.83-1.87h-10.53l-2.96,14.89h9.65Z"/>
        <path class="cls-3" d="M454.02,120.2c-.9,4.5-2.59,8.43-5.06,11.78-2.47,3.36-5.56,5.95-9.26,7.78l12.97,30.31h-19.67l-10.54-27.4h-7.89l-5.29,27.4h-18.06l14.53-74.42h28.59c3.08,0,5.98.66,8.72,1.97,2.73,1.32,5.01,3.06,6.83,5.24,1.82,2.18,3.12,4.79,3.92,7.84.79,3.04.86,6.21.21,9.5ZM420.34,112.99l-2.75,14.27h8.93c2.21,0,4.26-.67,6.12-2.02,1.87-1.35,3.01-3.1,3.42-5.24.42-2.08.05-3.76-1.09-5.06-1.14-1.3-2.84-1.95-5.08-1.95h-9.55Z"/>
        <path class="cls-3" d="M503.73,94.62c6.64,0,12.51,1.39,17.62,4.18,5.1,2.79,9.04,6.65,11.81,11.6,2.77,4.95,4.15,10.57,4.15,16.87,0,7.85-1.94,15.15-5.81,21.87-3.88,6.73-9.15,12.07-15.83,16.04-6.68,3.96-13.93,5.94-21.74,5.94-6.61,0-12.46-1.38-17.57-4.15-5.1-2.77-9.05-6.62-11.83-11.55s-4.18-10.53-4.18-16.79c0-5.92,1.15-11.58,3.45-17,2.3-5.41,5.39-10.09,9.26-14.04,3.87-3.94,8.49-7.09,13.86-9.44,5.36-2.35,10.97-3.53,16.81-3.53ZM501.6,112.16c-3.88,0-7.56,1.1-11.05,3.3-3.5,2.2-6.31,5.21-8.46,9.03-2.15,3.82-3.22,7.97-3.22,12.43,0,4.95,1.58,8.97,4.75,12.07,3.17,3.1,7.34,4.64,12.53,4.64,2.91,0,5.74-.66,8.51-1.97,2.77-1.31,5.2-3.07,7.29-5.27,2.09-2.2,3.78-4.83,5.06-7.89,1.28-3.06,1.92-6.25,1.92-9.57,0-4.95-1.59-8.98-4.77-12.09-3.18-3.11-7.37-4.67-12.56-4.67Z"/>
        <path class="cls-3" d="M537.29,170.07l14.53-74.42h21.38l10.64,48.06,30.83-48.06h19.2l-14.43,74.42h-17.96l7.84-39.54-24.24,39.54h-13.29l-8.56-39.54-7.89,39.54h-18.06Z"/>
        <path class="cls-3" d="M670.45,95.65c6.37,0,11.73,2.1,16.09,6.31s6.54,9.37,6.54,15.49c0,5.29-1.38,10.06-4.15,14.3-2.77,4.24-6.49,7.51-11.16,9.81-4.67,2.3-9.81,3.45-15.41,3.45h-10.85l-4.88,25.07h-18.06l14.53-74.42h27.35ZM664.48,127.78c2.77,0,5.23-.82,7.4-2.46,2.16-1.64,3.24-3.62,3.24-5.94,0-1.83-.66-3.37-1.97-4.62-1.32-1.25-2.92-1.87-4.83-1.87h-10.53l-2.96,14.89h9.65Z"/>
        <path class="cls-3" d="M761.05,95.65l-3.27,17.23h-20.97l-11.16,57.19h-17.96l11.16-57.19h-21.02l3.27-17.23h59.94Z"/>
        <path class="cls-3" d="M330.05,262.19l14.53-74.42h27.97c4.32,0,8.17.97,11.55,2.91,3.37,1.94,5.84,4.53,7.4,7.79,1.56,3.25,1.97,6.75,1.25,10.48-.62,3.08-2.04,5.93-4.26,8.56-2.21,2.63-4.93,4.52-8.15,5.66,3.46.9,6.1,3.08,7.91,6.54,1.82,3.46,2.26,7.49,1.32,12.09-.69,3.81-2.38,7.27-5.06,10.41-2.68,3.13-5.98,5.58-9.89,7.34-3.91,1.76-8.01,2.65-12.3,2.65h-32.28ZM351.43,244.96h11.57c2.21,0,4.19-.68,5.92-2.05,1.73-1.37,2.84-3.09,3.32-5.16.76-4.67-1.57-7.01-7.01-7.01h-11.05l-2.75,14.22ZM356.83,217.04h9.13c2.01,0,3.81-.59,5.4-1.76,1.59-1.18,2.59-2.65,3.01-4.41.31-1.94-.04-3.4-1.04-4.38-1-.99-2.68-1.48-5.03-1.48h-9.03l-2.44,12.04Z"/>
        <path class="cls-3" d="M440.99,262.19l-1.92-10.85h-26.67l-6.23,10.85h-19.46l43.9-74.42h14.32l15.21,74.42h-19.15ZM421.22,236.03h15.1l-3.48-19.98-11.62,19.98Z"/>
        <path class="cls-3" d="M527.29,187.77l-3.27,17.23h-20.97l-11.16,57.19h-17.96l11.16-57.19h-21.02l3.27-17.23h59.94Z"/>
        <path class="cls-3" d="M590.8,187.77l-3.27,17.23h-20.97l-11.16,57.19h-17.96l11.16-57.19h-21.02l3.27-17.23h59.94Z"/>
        <path class="cls-3" d="M597.22,187.77h18.01l-11.16,57.19h33.01l-3.37,17.23h-51.01l14.53-74.42Z"/>
        <path class="cls-3" d="M655.02,187.77h46.71l-3.32,17.23h-28.7l-2.13,10.64h25.64l-3.32,17.23h-25.58l-2.44,12.09h28.65l-3.27,17.23h-46.76l14.53-74.42Z"/>
      </g>
      <g>
        <path class="cls-4" d="M341.04,0h18.01l-14.48,74.42h-18.06L341.04,0Z"/>
        <path class="cls-4" d="M425.31,0l-3.27,17.23h-20.97l-11.16,57.19h-17.96l11.16-57.19h-21.02l3.27-17.23h59.94Z"/>
        <path class="cls-4" d="M462.66,74.42l-1.92-10.85h-26.67l-6.23,10.85h-19.46L452.28,0h14.32l15.21,74.42h-19.15ZM442.89,48.26h15.1l-3.48-19.98-11.62,19.98Z"/>
        <path class="cls-4" d="M501.21,0h18.01l-11.16,57.19h33.01l-3.37,17.23h-51.01L501.21,0Z"/>
        <path class="cls-4" d="M559.01,0h18.01l-14.48,74.42h-18.06L559.01,0Z"/>
        <path class="cls-4" d="M621.38,74.42l-1.92-10.85h-26.67l-6.23,10.85h-19.46L611,0h14.32l15.21,74.42h-19.15ZM601.61,48.26h15.1l-3.48-19.98-11.62,19.98Z"/>
        <path class="cls-4" d="M659.93,0h14.79l19.46,38.82,7.84-38.82h18.01l-14.48,74.42h-14.69l-19.62-38.66-7.79,38.66h-18.06L659.93,0Z"/>
        <path class="cls-4" d="M368.39,92.11c6.37,0,11.73,2.1,16.09,6.31s6.54,9.37,6.54,15.49c0,5.29-1.38,10.06-4.15,14.3-2.77,4.24-6.49,7.51-11.16,9.81-4.67,2.3-9.81,3.45-15.41,3.45h-10.85l-4.88,25.07h-18.06l14.53-74.42h27.35ZM362.42,124.24c2.77,0,5.23-.82,7.4-2.46,2.16-1.64,3.24-3.62,3.24-5.94,0-1.83-.66-3.37-1.97-4.62-1.32-1.25-2.92-1.87-4.83-1.87h-10.53l-2.96,14.89h9.65Z"/>
        <path class="cls-4" d="M450.48,116.66c-.9,4.5-2.59,8.43-5.06,11.78-2.47,3.36-5.56,5.95-9.26,7.78l12.97,30.31h-19.67l-10.54-27.4h-7.89l-5.29,27.4h-18.06l14.53-74.42h28.59c3.08,0,5.98.66,8.72,1.97,2.73,1.32,5.01,3.06,6.83,5.24,1.82,2.18,3.12,4.79,3.92,7.84.79,3.04.86,6.21.21,9.5ZM416.8,109.45l-2.75,14.27h8.93c2.21,0,4.26-.67,6.12-2.02,1.87-1.35,3.01-3.1,3.42-5.24.42-2.08.05-3.76-1.09-5.06-1.14-1.3-2.84-1.95-5.08-1.95h-9.55Z"/>
        <path class="cls-4" d="M500.19,91.07c6.64,0,12.51,1.39,17.62,4.18,5.1,2.79,9.04,6.65,11.81,11.6,2.77,4.95,4.15,10.57,4.15,16.87,0,7.85-1.94,15.15-5.81,21.87-3.88,6.73-9.15,12.07-15.83,16.04-6.68,3.96-13.93,5.94-21.74,5.94-6.61,0-12.46-1.38-17.57-4.15-5.1-2.77-9.05-6.62-11.83-11.55s-4.18-10.53-4.18-16.79c0-5.92,1.15-11.58,3.45-17,2.3-5.41,5.39-10.09,9.26-14.04,3.87-3.94,8.49-7.09,13.86-9.44,5.36-2.35,10.97-3.53,16.81-3.53ZM498.06,108.61c-3.88,0-7.56,1.1-11.05,3.3-3.5,2.2-6.31,5.21-8.46,9.03-2.15,3.82-3.22,7.97-3.22,12.43,0,4.95,1.58,8.97,4.75,12.07,3.17,3.1,7.34,4.64,12.53,4.64,2.91,0,5.74-.66,8.51-1.97,2.77-1.31,5.2-3.07,7.29-5.27,2.09-2.2,3.78-4.83,5.06-7.89,1.28-3.06,1.92-6.25,1.92-9.57,0-4.95-1.59-8.98-4.77-12.09-3.18-3.11-7.37-4.67-12.56-4.67Z"/>
        <path class="cls-4" d="M533.75,166.53l14.53-74.42h21.38l10.64,48.06,30.83-48.06h19.2l-14.43,74.42h-17.96l7.84-39.54-24.24,39.54h-13.29l-8.56-39.54-7.89,39.54h-18.06Z"/>
        <path class="cls-4" d="M666.91,92.11c6.37,0,11.73,2.1,16.09,6.31s6.54,9.37,6.54,15.49c0,5.29-1.38,10.06-4.15,14.3-2.77,4.24-6.49,7.51-11.16,9.81-4.67,2.3-9.81,3.45-15.41,3.45h-10.85l-4.88,25.07h-18.06l14.53-74.42h27.35ZM660.94,124.24c2.77,0,5.23-.82,7.4-2.46,2.16-1.64,3.24-3.62,3.24-5.94,0-1.83-.66-3.37-1.97-4.62-1.32-1.25-2.92-1.87-4.83-1.87h-10.53l-2.96,14.89h9.65Z"/>
        <path class="cls-4" d="M757.51,92.11l-3.27,17.23h-20.97l-11.16,57.19h-17.96l11.16-57.19h-21.02l3.27-17.23h59.94Z"/>
        <path class="cls-4" d="M326.51,258.64l14.53-74.42h27.97c4.32,0,8.17.97,11.55,2.91,3.37,1.94,5.84,4.53,7.4,7.79,1.56,3.25,1.97,6.75,1.25,10.48-.62,3.08-2.04,5.93-4.26,8.56-2.21,2.63-4.93,4.52-8.15,5.66,3.46.9,6.1,3.08,7.91,6.54,1.82,3.46,2.26,7.49,1.32,12.09-.69,3.81-2.38,7.27-5.06,10.41-2.68,3.13-5.98,5.58-9.89,7.34-3.91,1.76-8.01,2.65-12.3,2.65h-32.28ZM347.89,241.41h11.57c2.21,0,4.19-.68,5.92-2.05,1.73-1.37,2.84-3.09,3.32-5.16.76-4.67-1.57-7.01-7.01-7.01h-11.05l-2.75,14.22ZM353.29,213.49h9.13c2.01,0,3.81-.59,5.4-1.76,1.59-1.18,2.59-2.65,3.01-4.41.31-1.94-.04-3.4-1.04-4.38-1-.99-2.68-1.48-5.03-1.48h-9.03l-2.44,12.04Z"/>
        <path class="cls-4" d="M437.45,258.64l-1.92-10.85h-26.67l-6.23,10.85h-19.46l43.9-74.42h14.32l15.21,74.42h-19.15ZM417.68,232.49h15.1l-3.48-19.98-11.62,19.98Z"/>
        <path class="cls-4" d="M523.74,184.22l-3.27,17.23h-20.97l-11.16,57.19h-17.96l11.16-57.19h-21.02l3.27-17.23h59.94Z"/>
        <path class="cls-4" d="M587.26,184.22l-3.27,17.23h-20.97l-11.16,57.19h-17.96l11.16-57.19h-21.02l3.27-17.23h59.94Z"/>
        <path class="cls-4" d="M593.68,184.22h18.01l-11.16,57.19h33.01l-3.37,17.23h-51.01l14.53-74.42Z"/>
        <path class="cls-4" d="M651.48,184.22h46.71l-3.32,17.23h-28.7l-2.13,10.64h25.64l-3.32,17.23h-25.58l-2.44,12.09h28.65l-3.27,17.23h-46.76l14.53-74.42Z"/>
      </g>
    </g>
  </g>
</svg>